<?xml version="1.0" encoding="utf-8"?><svg viewBox="0 0 1202 725" xmlns="http://www.w3.org/2000/svg" xmlns:xlink="http://www.w3.org/1999/xlink"><style>:root>svg{display:none}:root>svg:target{display:block}</style><svg fill="none" viewBox="0 0 42 30" id="angle-arrow" xmlns="http://www.w3.org/2000/svg"><path d="M36.752 29.985a2 2 0 0 0 2.233-1.737l2.232-17.86a2 2 0 0 0-3.969-.497l-1.984 15.876-15.877-1.984a2 2 0 0 0-.496 3.969l17.86 2.233ZM18.333 4l1.579-1.228L18.226.604l-1.546 2.27L18.333 4ZM3.653 29.125l16.334-24-3.307-2.25-16.333 24 3.306 2.25ZM16.755 5.228l18.666 24 3.158-2.456-18.667-24-3.157 2.456Z" fill="#000"/></svg><svg fill="none" viewBox="0 0 29 12" id="arrow-left" xmlns="http://www.w3.org/2000/svg"><path d="M.47 5.47a.75.75 0 0 0 0 1.06l4.773 4.773a.75.75 0 1 0 1.06-1.06L2.061 6l4.242-4.243a.75.75 0 1 0-1.06-1.06L.47 5.47ZM29 5.25H1v1.5h28v-1.5Z" fill="#000"/></svg><svg fill="none" viewBox="0 0 30 24" id="arrow-right" xmlns="http://www.w3.org/2000/svg"><path d="M29.06 13.06a1.5 1.5 0 0 0 0-2.12l-9.545-9.547a1.5 1.5 0 1 0-2.122 2.122L25.88 12l-8.486 8.485a1.5 1.5 0 1 0 2.122 2.122l9.546-9.546ZM0 13.5h28v-3H0v3Z" fill="#fff"/></svg><svg fill="none" viewBox="0 0 32 8" id="arrow-right-long" xmlns="http://www.w3.org/2000/svg"><path d="M31.354 4.354a.5.5 0 0 0 0-.708L28.172.464a.5.5 0 1 0-.707.708L30.293 4l-2.828 2.828a.5.5 0 1 0 .707.708l3.182-3.182ZM0 4.5h31v-1H0v1Z" fill="#fff"/></svg><svg fill="none" viewBox="0 0 90 90" id="arrow-up" xmlns="http://www.w3.org/2000/svg"><g clip-path="url(#ea)"><path d="M48.975 12.311a5.625 5.625 0 0 0-7.95 0l-21.221 21.21a5.626 5.626 0 1 0 7.957 7.958l11.614-11.61v43.256a5.625 5.625 0 1 0 11.25 0V29.87l11.61 11.61a5.625 5.625 0 0 0 9.606-3.979 5.626 5.626 0 0 0-1.648-3.979l-21.218-21.21Z" fill="#fff"/></g><defs><clipPath id="ea"><path fill="#fff" d="M0 0h90v90H0z"/></clipPath></defs></svg><svg fill="none" viewBox="0 0 71 70" id="complect" xmlns="http://www.w3.org/2000/svg"><path d="M70.5 0v26.25H.5V0h70Zm-3.889 21.875v-17.5H4.39v17.5H66.61ZM16.056 8.75v8.75H8.278V8.75h7.778Zm11.666 0v8.75h-7.778V8.75h7.778Zm11.667 0v8.75H31.61V8.75h7.778Zm11.667 0v8.75h-7.778V8.75h7.778Zm11.666 0v8.75h-7.778V8.75h7.778ZM70.5 30.625V70H.5V30.625h70Zm-3.889 35V35H4.39v30.625H66.61Zm-50.555-26.25v8.75H8.278v-8.75h7.778Zm11.666 0v8.75h-7.778v-8.75h7.778Zm11.667 0v8.75H31.61v-8.75h7.778Zm23.333 0v8.75H43.278v-8.75h19.444ZM39.39 52.5v8.75H8.278V52.5h31.11Zm11.667 0v8.75h-7.778V52.5h7.778Zm11.666 0v8.75h-7.778V52.5h7.778Z" fill="#00E0FF"/></svg><svg fill="none" viewBox="0 0 47 46" id="facebook" xmlns="http://www.w3.org/2000/svg"><path d="M23.982 0C11.3 0 .98 10.317.98 23S11.3 46 23.982 46c12.682 0 23.001-10.317 23.001-23S36.663 0 23.982 0Zm0 44.468c-11.837 0-21.467-9.63-21.467-21.468 0-11.837 9.63-21.468 21.467-21.468 11.837 0 21.467 9.63 21.467 21.468 0 11.837-9.63 21.468-21.467 21.468Z" fill="#fff"/><path d="M29.003 10.09h-3.827c-4.874-.049-5.497 2.968-5.497 6.233v2.374h-2.151a.64.64 0 0 0-.718.717v4.303a.638.638 0 0 0 .718.718h2.151v10.758a.645.645 0 0 0 .722.717h4.382c.423.049.766-.294.631-.717l.003-10.758h3.586a.64.64 0 0 0 .717-.718v-4.303a.638.638 0 0 0-.717-.717h-3.59l.004-2.152c.14-.916.14-.767.99-.717h2.566c.2-.044.412-.02.56-.165.15-.145.236-.343.186-.552v-4.304a.636.636 0 0 0-.716-.717Zm-.767 4.223-1.8-.069c-2.227 0-2.413 1.21-2.413 2.448l-.006 2.72a.766.766 0 0 0 .766.767h3.503v2.771h-3.5a.768.768 0 0 0-.768.766l-.001 10.76h-2.903V23.717c0-.423-.289-.766-.713-.766h-2.156v-2.77H20.4a.767.767 0 0 0 .542-.225c.143-.145.17-.34.17-.543V16.32c0-3.216.649-4.748 4.062-4.748h3.06v2.74Z" fill="#fff"/></svg><svg fill="none" viewBox="0 0 71 70" id="icon-clock" xmlns="http://www.w3.org/2000/svg"><path d="M35.508 19.588v16.793H46.28c.715 0 1.4.294 1.904.82.506.524.79 1.236.79 1.978 0 .743-.284 1.454-.79 1.98-.505.524-1.19.82-1.904.82H32.815c-.714 0-1.399-.296-1.904-.82a2.856 2.856 0 0 1-.789-1.98V19.59c0-.743.284-1.455.79-1.98a2.643 2.643 0 0 1 1.904-.82c.714 0 1.399.295 1.904.82.505.525.788 1.237.788 1.98ZM.5 13.991c0 4.262 1.831 8.077 4.723 10.643a34.691 34.691 0 0 0-2.03 11.747c0 8.267 2.873 15.835 7.64 21.687l-6.851 7.12a2.804 2.804 0 0 0-.604.909 2.893 2.893 0 0 0-.018 2.164c.136.344.336.657.589.92.252.262.553.47.884.61a2.605 2.605 0 0 0 2.083-.018c.328-.147.625-.36.874-.627l6.85-7.12c5.83 5.137 13.226 7.951 20.868 7.94 7.956 0 15.237-2.987 20.868-7.94l6.851 7.12a2.64 2.64 0 0 0 1.894.785 2.643 2.643 0 0 0 1.881-.82c.5-.518.783-1.22.789-1.954a2.859 2.859 0 0 0-.756-1.969l-6.851-7.12c4.943-6.057 7.651-13.745 7.64-21.687 0-4.131-.72-8.089-2.03-11.747a13.942 13.942 0 0 0 3.362-4.534 14.489 14.489 0 0 0 .416-11.2 14.056 14.056 0 0 0-3.016-4.79 13.43 13.43 0 0 0-4.61-3.134 13.01 13.01 0 0 0-10.775.433c-1.67.84-3.156 2.03-4.363 3.494a31.164 31.164 0 0 0-11.3-2.105 31.22 31.22 0 0 0-11.302 2.11c-1.787-2.176-4.174-3.73-6.838-4.454a12.983 12.983 0 0 0-8.06.41c-2.584.99-4.813 2.778-6.388 5.126a14.378 14.378 0 0 0-2.42 8Zm5.386 0a8.64 8.64 0 0 1 1.247-4.482A8.19 8.19 0 0 1 10.49 6.41a7.81 7.81 0 0 1 4.43-.757 7.924 7.924 0 0 1 4.135 1.817c-4.68 2.885-8.589 6.946-11.365 11.81a8.566 8.566 0 0 1-1.804-5.29Zm59.245 0a8.569 8.569 0 0 1-1.804 5.29c-2.776-4.865-6.684-8.926-11.365-11.811 1.186-1 2.62-1.63 4.135-1.817a7.81 7.81 0 0 1 4.43.757 8.19 8.19 0 0 1 3.357 3.099 8.64 8.64 0 0 1 1.247 4.482ZM35.508 8.393c14.874 0 26.93 12.53 26.93 27.988 0 15.457-12.056 27.987-26.93 27.987-14.873 0-26.93-12.53-26.93-27.987 0-15.458 12.057-27.988 26.93-27.988Z" fill="#00E0FF"/></svg><svg fill="none" viewBox="0 0 70 70" id="icon-diamant" xmlns="http://www.w3.org/2000/svg"><path d="M14.521 0H55.48L70 20.521 35 70 0 20.521 14.521 0Zm15.49 3.684-6.33 14.737h22.638L39.99 3.684h-9.978Zm-6.814 18.421L35 58.063l11.803-35.958H23.197ZM6.032 18.421H19.66l6.33-14.737h-9.607L6.032 18.421Zm-.372 3.684 25.393 35.921-11.766-35.92H5.66Zm58.308-3.684L53.617 3.684h-9.606l6.33 14.737h13.627Zm.372 3.684H50.713L38.947 58.026l25.393-35.92Z" fill="#00E0FF"/></svg><svg fill="none" viewBox="0 0 77 78" id="icon-sixangle" xmlns="http://www.w3.org/2000/svg"><path d="M73.5 22.593v32.814c0 .378-.111.75-.323 1.075a2.245 2.245 0 0 1-.879.778L39.632 73.734A2.522 2.522 0 0 1 38.5 74c-.396 0-.785-.091-1.132-.266L4.702 57.26a2.245 2.245 0 0 1-.88-.778 1.972 1.972 0 0 1-.322-1.075V22.593c0-.377.112-.748.323-1.073.212-.326.515-.594.879-.777L37.368 4.266A2.521 2.521 0 0 1 38.5 4c.396 0 .785.091 1.132.266l32.666 16.477c.364.183.667.451.879.777.21.325.322.696.323 1.073Z" stroke="#00E0FF" stroke-width="6.25" stroke-linecap="round" stroke-linejoin="round"/></svg><svg fill="none" viewBox="0 0 78 78" id="icon-wallet" xmlns="http://www.w3.org/2000/svg"><path d="M69 30.25V9.833c0-1.547-.527-3.03-1.465-4.124C66.599 4.615 65.326 4 64 4H9c-1.326 0-2.598.615-3.536 1.709C4.527 6.803 4 8.286 4 9.833v58.334c0 1.547.527 3.03 1.464 4.124C6.402 73.385 7.674 74 9 74h55c1.326 0 2.598-.615 3.535-1.709.938-1.093 1.465-2.577 1.465-4.124V47.75m4.65-20.417H49c-2.652 0-5.196 1.23-7.071 3.417C40.054 32.938 39 35.906 39 39c0 3.094 1.054 6.062 2.929 8.25 1.875 2.188 4.419 3.417 7.071 3.417h24.65a.327.327 0 0 0 .247-.12.446.446 0 0 0 .103-.289V27.742a.446.446 0 0 0-.103-.29.327.327 0 0 0-.247-.119Z" stroke="#00E0FF" stroke-width="6.667"/></svg><svg fill="none" viewBox="0 0 1202 725" id="portfolio-bg" xmlns="http://www.w3.org/2000/svg"><path stroke="#4B4B4B" stroke-width="2" d="M1201 0v938M601 0v938M915 0v938M286 0v725M1 0v938"/></svg><svg fill="none" viewBox="0 0 78 78" id="smile" xmlns="http://www.w3.org/2000/svg"><path d="M51.374 51.374a17.498 17.498 0 0 1-24.748 0M74 39a35 35 0 1 1-70 0 35 35 0 0 1 70 0Zm-43.75-8.75c0 1.61-.653 2.917-1.458 2.917-.805 0-1.459-1.307-1.459-2.917 0-1.61.654-2.917 1.459-2.917s1.458 1.307 1.458 2.917Zm-1.458 0h.03v.058h-.03v-.058Zm21.875 0c0 1.61-.654 2.917-1.459 2.917S47.75 31.86 47.75 30.25c0-1.61.653-2.917 1.458-2.917.805 0 1.459 1.307 1.459 2.917Zm-1.459 0h.031v.058h-.03v-.058Z" stroke="#00E0FF" stroke-width="6.25" stroke-linecap="round" stroke-linejoin="round"/></svg><svg fill="none" viewBox="0 0 45 44" id="whatsapp" xmlns="http://www.w3.org/2000/svg"><path d="M22.5.5A21.52 21.52 0 0 0 3.65 32.36L1 43.5l11.14-2.65A21.499 21.499 0 1 0 22.5.5Zm-10.75 9.77h5.86a1 1 0 0 1 1 1 10.4 10.4 0 0 0 .66 3.91 1.93 1.93 0 0 1-.66 2.44l-2.05 2a18.602 18.602 0 0 0 3.52 4.79A18.6 18.6 0 0 0 24.85 28l2-2.05c1-1 1.46-1 2.44-.66a10.4 10.4 0 0 0 3.91.66 1.05 1.05 0 0 1 1 1v5.86a1.05 1.05 0 0 1-1 1 23.68 23.68 0 0 1-15.64-6.84 23.6 23.6 0 0 1-6.84-15.64 1.07 1.07 0 0 1 1.03-1.06Z" stroke="#fff" stroke-linecap="round" stroke-linejoin="round"/></svg></svg>