<svg width="199" height="16" viewBox="0 0 199 16" fill="none" xmlns="http://www.w3.org/2000/svg">
<path d="M0.78 0.84C1.08667 0.853333 1.48 0.866666 1.96 0.879999C2.45333 0.893333 2.94 0.899999 3.42 0.899999C4.06 0.899999 4.66667 0.893333 5.24 0.879999C5.82667 0.866666 6.24 0.86 6.48 0.86C8.17333 0.86 9.44 1.22667 10.28 1.96C11.12 2.69333 11.54 3.64 11.54 4.8C11.54 5.28 11.4533 5.78667 11.28 6.32C11.12 6.84 10.8333 7.32667 10.42 7.78C10.0067 8.22 9.44667 8.58 8.74 8.86C8.03333 9.14 7.13333 9.28 6.04 9.28H4.08V8.88H5.84C6.73333 8.88 7.41333 8.7 7.88 8.34C8.36 7.98 8.68 7.50667 8.84 6.92C9.01333 6.33333 9.1 5.7 9.1 5.02C9.1 3.75333 8.87333 2.80667 8.42 2.18C7.96667 1.55333 7.18 1.24 6.06 1.24C5.48667 1.24 5.10667 1.35333 4.92 1.58C4.74667 1.80667 4.66 2.26667 4.66 2.96V12.84C4.66 13.3333 4.71333 13.7067 4.82 13.96C4.92667 14.2 5.12667 14.36 5.42 14.44C5.71333 14.52 6.14667 14.5667 6.72 14.58V15C6.36 14.9733 5.89333 14.96 5.32 14.96C4.74667 14.9467 4.15333 14.94 3.54 14.94C3.00667 14.94 2.49333 14.9467 2 14.96C1.52 14.96 1.11333 14.9733 0.78 15V14.6C1.23333 14.5733 1.57333 14.52 1.8 14.44C2.02667 14.36 2.17333 14.2 2.24 13.96C2.32 13.72 2.36 13.36 2.36 12.88V2.96C2.36 2.46667 2.32 2.10667 2.24 1.88C2.17333 1.64 2.02 1.48 1.78 1.4C1.55333 1.30667 1.22 1.25333 0.78 1.24V0.84ZM12.8113 0.84C13.1179 0.853333 13.5113 0.866666 13.9913 0.879999C14.4846 0.893333 14.9713 0.899999 15.4513 0.899999C16.0913 0.899999 16.6979 0.893333 17.2713 0.879999C17.8579 0.866666 18.2713 0.86 18.5113 0.86C19.6446 0.86 20.5846 1.00667 21.3313 1.3C22.0913 1.59333 22.6513 2.00667 23.0113 2.54C23.3846 3.06 23.5713 3.66 23.5713 4.34C23.5713 4.75333 23.4846 5.19333 23.3113 5.66C23.1513 6.11333 22.8646 6.54 22.4513 6.94C22.0379 7.32667 21.4779 7.64667 20.7713 7.9C20.0646 8.15333 19.1646 8.28 18.0713 8.28H16.1513V7.88H17.8713C18.7646 7.88 19.4446 7.73333 19.9113 7.44C20.3913 7.13333 20.7113 6.73333 20.8713 6.24C21.0446 5.73333 21.1313 5.17333 21.1313 4.56C21.1313 3.50667 20.9046 2.69333 20.4513 2.12C19.9979 1.53333 19.2113 1.24 18.0913 1.24C17.5179 1.24 17.1379 1.35333 16.9513 1.58C16.7779 1.80667 16.6913 2.26667 16.6913 2.96V12.88C16.6913 13.36 16.7313 13.72 16.8113 13.96C16.8913 14.2 17.0446 14.36 17.2713 14.44C17.4979 14.52 17.8313 14.5733 18.2713 14.6V15C17.9513 14.9733 17.5446 14.96 17.0513 14.96C16.5713 14.9467 16.0779 14.94 15.5713 14.94C15.0113 14.94 14.4846 14.9467 13.9913 14.96C13.5113 14.96 13.1179 14.9733 12.8113 15V14.6C13.2646 14.5733 13.6046 14.52 13.8313 14.44C14.0579 14.36 14.2046 14.2 14.2713 13.96C14.3513 13.72 14.3913 13.36 14.3913 12.88V2.96C14.3913 2.46667 14.3513 2.10667 14.2713 1.88C14.2046 1.64 14.0513 1.48 13.8113 1.4C13.5846 1.30667 13.2513 1.25333 12.8113 1.24V0.84ZM16.1913 7.94C16.8713 7.96667 17.4179 8 17.8313 8.04C18.2446 8.06667 18.5913 8.09333 18.8713 8.12C19.1513 8.14667 19.4113 8.18 19.6513 8.22C20.6513 8.35333 21.3779 8.62 21.8313 9.02C22.2979 9.42 22.6179 10.0333 22.7913 10.86L23.2913 12.9C23.4113 13.4733 23.5379 13.88 23.6713 14.12C23.8179 14.36 24.0313 14.48 24.3113 14.48C24.5246 14.4667 24.6979 14.4067 24.8313 14.3C24.9779 14.18 25.1313 14.02 25.2913 13.82L25.5713 14.04C25.2646 14.4533 24.9446 14.7667 24.6113 14.98C24.2779 15.18 23.8313 15.28 23.2713 15.28C22.6979 15.28 22.2046 15.1333 21.7913 14.84C21.3913 14.5333 21.1046 13.96 20.9313 13.12L20.5313 11.12C20.4113 10.5467 20.2779 10.0533 20.1313 9.64C19.9846 9.21333 19.7779 8.88 19.5113 8.64C19.2579 8.4 18.8846 8.28 18.3913 8.28H16.2313L16.1913 7.94ZM36.293 0.84C36.2396 1.34667 36.1996 1.84 36.173 2.32C36.1596 2.78667 36.153 3.14667 36.153 3.4C36.153 3.65333 36.1596 3.89333 36.173 4.12C36.1863 4.34667 36.1996 4.53333 36.213 4.68H35.753C35.6596 3.82667 35.513 3.15333 35.313 2.66C35.1263 2.16667 34.8396 1.82 34.453 1.62C34.0796 1.40667 33.553 1.3 32.873 1.3H31.493C31.0663 1.3 30.7396 1.34 30.513 1.42C30.2996 1.48667 30.153 1.63333 30.073 1.86C29.993 2.07333 29.953 2.41333 29.953 2.88V12.96C29.953 13.4133 29.993 13.7533 30.073 13.98C30.153 14.2067 30.2996 14.36 30.513 14.44C30.7396 14.5067 31.0663 14.54 31.493 14.54H32.793C33.553 14.54 34.153 14.42 34.593 14.18C35.0463 13.94 35.3863 13.5467 35.613 13C35.853 12.4533 36.033 11.7067 36.153 10.76H36.613C36.573 11.1467 36.553 11.6533 36.553 12.28C36.553 12.5467 36.5596 12.9333 36.573 13.44C36.5996 13.9467 36.6396 14.4667 36.693 15C36.013 14.9733 35.2463 14.96 34.393 14.96C33.5396 14.9467 32.7796 14.94 32.113 14.94C31.8063 14.94 31.413 14.94 30.933 14.94C30.453 14.94 29.933 14.9467 29.373 14.96C28.8263 14.96 28.2663 14.9667 27.693 14.98C27.133 14.98 26.593 14.9867 26.073 15V14.6C26.5263 14.5733 26.8663 14.52 27.093 14.44C27.3196 14.36 27.4663 14.2 27.533 13.96C27.613 13.72 27.653 13.36 27.653 12.88V2.96C27.653 2.46667 27.613 2.10667 27.533 1.88C27.4663 1.64 27.313 1.48 27.073 1.4C26.8463 1.30667 26.513 1.25333 26.073 1.24V0.84C26.593 0.853333 27.133 0.866666 27.693 0.879999C28.2663 0.879999 28.8263 0.886666 29.373 0.899999C29.933 0.899999 30.453 0.899999 30.933 0.899999C31.413 0.899999 31.8063 0.899999 32.113 0.899999C32.7263 0.899999 33.4196 0.899999 34.193 0.899999C34.9796 0.886666 35.6796 0.866666 36.293 0.84ZM32.973 7.68C32.973 7.68 32.973 7.74667 32.973 7.88C32.973 8.01333 32.973 8.08 32.973 8.08H29.353C29.353 8.08 29.353 8.01333 29.353 7.88C29.353 7.74667 29.353 7.68 29.353 7.68H32.973ZM33.553 5.04C33.4996 5.8 33.473 6.38 33.473 6.78C33.4863 7.18 33.493 7.54667 33.493 7.88C33.493 8.21333 33.4996 8.58 33.513 8.98C33.5263 9.38 33.5596 9.96 33.613 10.72H33.153C33.0863 10.28 32.9996 9.86 32.893 9.46C32.7863 9.04667 32.593 8.71333 32.313 8.46C32.0463 8.20667 31.6263 8.08 31.053 8.08V7.68C31.4796 7.68 31.813 7.59333 32.053 7.42C32.3063 7.24667 32.4996 7.02 32.633 6.74C32.7663 6.46 32.8596 6.17333 32.913 5.88C32.9796 5.57333 33.0396 5.29333 33.093 5.04H33.553ZM54.6567 0.84V1.24C54.2034 1.25333 53.8634 1.30667 53.6367 1.4C53.4101 1.48 53.2567 1.64 53.1767 1.88C53.1101 2.10667 53.0767 2.46667 53.0767 2.96V12.88C53.0767 13.36 53.1101 13.72 53.1767 13.96C53.2567 14.2 53.4101 14.36 53.6367 14.44C53.8634 14.52 54.2034 14.5733 54.6567 14.6V15C54.3234 14.9733 53.9101 14.96 53.4167 14.96C52.9234 14.9467 52.4234 14.94 51.9167 14.94C51.3567 14.94 50.8301 14.9467 50.3367 14.96C49.8434 14.96 49.4501 14.9733 49.1567 15V14.6C49.6101 14.5733 49.9501 14.52 50.1767 14.44C50.4167 14.36 50.5767 14.2 50.6567 13.96C50.7367 13.72 50.7767 13.36 50.7767 12.88V1.94L50.8767 1.98L45.9567 15.08H45.6367L40.4767 2.12V12.36C40.4767 12.92 40.5167 13.36 40.5967 13.68C40.6767 13.9867 40.8501 14.2067 41.1167 14.34C41.3834 14.4733 41.7901 14.56 42.3367 14.6V15C42.0834 14.9733 41.7567 14.96 41.3567 14.96C40.9701 14.9467 40.6034 14.94 40.2567 14.94C39.9234 14.94 39.5901 14.9467 39.2567 14.96C38.9234 14.96 38.6501 14.9733 38.4367 15V14.6C38.8767 14.56 39.2101 14.48 39.4367 14.36C39.6634 14.2267 39.8167 14.0067 39.8967 13.7C39.9767 13.3933 40.0167 12.9733 40.0167 12.44V2.96C40.0167 2.46667 39.9767 2.10667 39.8967 1.88C39.8167 1.64 39.6634 1.48 39.4367 1.4C39.2101 1.30667 38.8767 1.25333 38.4367 1.24V0.84C38.6501 0.853333 38.9234 0.866666 39.2567 0.879999C39.5901 0.893333 39.9234 0.899999 40.2567 0.899999C40.6434 0.899999 41.0301 0.893333 41.4167 0.879999C41.8167 0.866666 42.1567 0.853333 42.4367 0.84L46.8567 12.2L46.4767 12.46L50.8167 0.899999C50.9901 0.899999 51.1701 0.899999 51.3567 0.899999C51.5434 0.899999 51.7301 0.899999 51.9167 0.899999C52.4234 0.899999 52.9234 0.893333 53.4167 0.879999C53.9101 0.866666 54.3234 0.853333 54.6567 0.84ZM61.6697 0.84V1.24C61.2297 1.25333 60.8964 1.30667 60.6697 1.4C60.443 1.48 60.2897 1.64 60.2097 1.88C60.1297 2.10667 60.0897 2.46667 60.0897 2.96V12.88C60.0897 13.36 60.1297 13.72 60.2097 13.96C60.2897 14.2 60.443 14.36 60.6697 14.44C60.8964 14.52 61.2297 14.5733 61.6697 14.6V15C61.3497 14.9733 60.943 14.96 60.4497 14.96C59.9697 14.9467 59.4764 14.94 58.9697 14.94C58.4097 14.94 57.883 14.9467 57.3897 14.96C56.9097 14.96 56.5164 14.9733 56.2097 15V14.6C56.663 14.5733 57.003 14.52 57.2297 14.44C57.4564 14.36 57.603 14.2 57.6697 13.96C57.7497 13.72 57.7897 13.36 57.7897 12.88V2.96C57.7897 2.46667 57.7497 2.10667 57.6697 1.88C57.603 1.64 57.4497 1.48 57.2097 1.4C56.983 1.30667 56.6497 1.25333 56.2097 1.24V0.84C56.5164 0.853333 56.9097 0.866666 57.3897 0.879999C57.883 0.893333 58.4097 0.899999 58.9697 0.899999C59.4764 0.899999 59.9697 0.893333 60.4497 0.879999C60.943 0.866666 61.3497 0.853333 61.6697 0.84ZM75.6414 0.84V1.24C75.2014 1.26667 74.8681 1.34667 74.6414 1.48C74.4147 1.61333 74.2614 1.83333 74.1814 2.14C74.1014 2.43333 74.0614 2.85333 74.0614 3.4V9.18C74.0614 10.0867 74.0014 10.8933 73.8814 11.6C73.7614 12.3067 73.5481 12.9133 73.2414 13.42C72.9081 13.98 72.4147 14.4333 71.7614 14.78C71.1214 15.1133 70.3547 15.28 69.4614 15.28C68.8214 15.28 68.2014 15.2067 67.6014 15.06C67.0014 14.9133 66.4747 14.6333 66.0214 14.22C65.6214 13.86 65.3081 13.4667 65.0814 13.04C64.8547 12.6133 64.7014 12.1 64.6214 11.5C64.5414 10.8867 64.5014 10.1333 64.5014 9.24V2.96C64.5014 2.46667 64.4614 2.10667 64.3814 1.88C64.3147 1.64 64.1681 1.48 63.9414 1.4C63.7147 1.30667 63.3747 1.25333 62.9214 1.24V0.84C63.2281 0.853333 63.6214 0.866666 64.1014 0.879999C64.5947 0.893333 65.1214 0.899999 65.6814 0.899999C66.1881 0.899999 66.6881 0.893333 67.1814 0.879999C67.6881 0.866666 68.1014 0.853333 68.4214 0.84V1.24C67.9681 1.25333 67.6214 1.30667 67.3814 1.4C67.1547 1.48 67.0014 1.64 66.9214 1.88C66.8414 2.10667 66.8014 2.46667 66.8014 2.96V9.88C66.8014 10.56 66.8347 11.1867 66.9014 11.76C66.9814 12.3333 67.1214 12.8333 67.3214 13.26C67.5347 13.6733 67.8414 14 68.2414 14.24C68.6547 14.4667 69.1881 14.58 69.8414 14.58C70.8281 14.58 71.5881 14.36 72.1214 13.92C72.6681 13.4667 73.0481 12.8533 73.2614 12.08C73.4881 11.2933 73.6014 10.4 73.6014 9.4V3.48C73.6014 2.90667 73.5481 2.46667 73.4414 2.16C73.3347 1.85333 73.1481 1.63333 72.8814 1.5C72.6147 1.35333 72.2347 1.26667 71.7414 1.24V0.84C71.9947 0.853333 72.3214 0.866666 72.7214 0.879999C73.1214 0.893333 73.4881 0.899999 73.8214 0.899999C74.1681 0.899999 74.5014 0.893333 74.8214 0.879999C75.1547 0.866666 75.4281 0.853333 75.6414 0.84ZM93.1333 0.84V1.24C92.6799 1.25333 92.3399 1.30667 92.1133 1.4C91.8866 1.48 91.7333 1.64 91.6533 1.88C91.5866 2.10667 91.5533 2.46667 91.5533 2.96V12.88C91.5533 13.36 91.5866 13.72 91.6533 13.96C91.7333 14.2 91.8866 14.36 92.1133 14.44C92.3399 14.52 92.6799 14.5733 93.1333 14.6V15C92.7999 14.9733 92.3866 14.96 91.8933 14.96C91.3999 14.9467 90.8999 14.94 90.3933 14.94C89.8333 14.94 89.3066 14.9467 88.8133 14.96C88.3199 14.96 87.9266 14.9733 87.6333 15V14.6C88.0866 14.5733 88.4266 14.52 88.6533 14.44C88.8933 14.36 89.0533 14.2 89.1333 13.96C89.2133 13.72 89.2533 13.36 89.2533 12.88V1.94L89.3533 1.98L84.4333 15.08H84.1133L78.9533 2.12V12.36C78.9533 12.92 78.9933 13.36 79.0733 13.68C79.1533 13.9867 79.3266 14.2067 79.5933 14.34C79.8599 14.4733 80.2666 14.56 80.8133 14.6V15C80.5599 14.9733 80.2333 14.96 79.8333 14.96C79.4466 14.9467 79.0799 14.94 78.7333 14.94C78.3999 14.94 78.0666 14.9467 77.7333 14.96C77.3999 14.96 77.1266 14.9733 76.9133 15V14.6C77.3533 14.56 77.6866 14.48 77.9133 14.36C78.1399 14.2267 78.2933 14.0067 78.3733 13.7C78.4533 13.3933 78.4933 12.9733 78.4933 12.44V2.96C78.4933 2.46667 78.4533 2.10667 78.3733 1.88C78.2933 1.64 78.1399 1.48 77.9133 1.4C77.6866 1.30667 77.3533 1.25333 76.9133 1.24V0.84C77.1266 0.853333 77.3999 0.866666 77.7333 0.879999C78.0666 0.893333 78.3999 0.899999 78.7333 0.899999C79.1199 0.899999 79.5066 0.893333 79.8933 0.879999C80.2933 0.866666 80.6333 0.853333 80.9133 0.84L85.3333 12.2L84.9533 12.46L89.2933 0.899999C89.4666 0.899999 89.6466 0.899999 89.8333 0.899999C90.0199 0.899999 90.2066 0.899999 90.3933 0.899999C90.8999 0.899999 91.3999 0.893333 91.8933 0.879999C92.3866 0.866666 92.7999 0.853333 93.1333 0.84ZM111.589 0.84V1.24C111.162 1.30667 110.736 1.46 110.309 1.7C109.896 1.92667 109.476 2.30667 109.049 2.84L105.209 7.64L105.889 6.42L110.689 13.38C110.902 13.7 111.129 13.9533 111.369 14.14C111.622 14.3267 111.942 14.48 112.329 14.6V15C111.969 14.9733 111.536 14.96 111.029 14.96C110.522 14.9467 110.076 14.94 109.689 14.94C109.449 14.94 109.149 14.9467 108.789 14.96C108.442 14.96 108.002 14.9733 107.469 15V14.6C107.962 14.5733 108.262 14.4933 108.369 14.36C108.489 14.2267 108.442 14.0067 108.229 13.7L105.329 9.2C105.089 8.82667 104.876 8.54667 104.689 8.36C104.502 8.16 104.309 8.03333 104.109 7.98C103.909 7.91333 103.662 7.87333 103.369 7.86V7.44C103.929 7.42667 104.409 7.3 104.809 7.06C105.222 6.82 105.609 6.49333 105.969 6.08L107.629 3.98C108.096 3.40667 108.396 2.92 108.529 2.52C108.662 2.10667 108.629 1.79333 108.429 1.58C108.229 1.36667 107.856 1.25333 107.309 1.24V0.84C107.589 0.853333 107.862 0.866666 108.129 0.879999C108.409 0.879999 108.689 0.886666 108.969 0.899999C109.262 0.899999 109.549 0.899999 109.829 0.899999C110.189 0.899999 110.516 0.893333 110.809 0.879999C111.116 0.866666 111.376 0.853333 111.589 0.84ZM105.029 0.84V1.24C104.589 1.25333 104.256 1.30667 104.029 1.4C103.802 1.48 103.649 1.64 103.569 1.88C103.489 2.10667 103.449 2.46667 103.449 2.96V12.88C103.449 13.36 103.489 13.72 103.569 13.96C103.649 14.2 103.802 14.36 104.029 14.44C104.256 14.52 104.589 14.5733 105.029 14.6V15C104.709 14.9733 104.302 14.96 103.809 14.96C103.329 14.9467 102.836 14.94 102.329 14.94C101.769 14.94 101.242 14.9467 100.749 14.96C100.269 14.96 99.8757 14.9733 99.5691 15V14.6C100.022 14.5733 100.362 14.52 100.589 14.44C100.816 14.36 100.962 14.2 101.029 13.96C101.109 13.72 101.149 13.36 101.149 12.88V2.96C101.149 2.46667 101.109 2.10667 101.029 1.88C100.962 1.64 100.809 1.48 100.569 1.4C100.342 1.30667 100.009 1.25333 99.5691 1.24V0.84C99.8757 0.853333 100.269 0.866666 100.749 0.879999C101.242 0.893333 101.769 0.899999 102.329 0.899999C102.836 0.899999 103.329 0.893333 103.809 0.879999C104.302 0.866666 104.709 0.853333 105.029 0.84ZM118.525 0.84V1.24C118.085 1.25333 117.752 1.30667 117.525 1.4C117.298 1.48 117.145 1.64 117.065 1.88C116.985 2.10667 116.945 2.46667 116.945 2.96V12.88C116.945 13.36 116.985 13.72 117.065 13.96C117.145 14.2 117.298 14.36 117.525 14.44C117.752 14.52 118.085 14.5733 118.525 14.6V15C118.205 14.9733 117.798 14.96 117.305 14.96C116.825 14.9467 116.332 14.94 115.825 14.94C115.265 14.94 114.738 14.9467 114.245 14.96C113.765 14.96 113.372 14.9733 113.065 15V14.6C113.518 14.5733 113.858 14.52 114.085 14.44C114.312 14.36 114.458 14.2 114.525 13.96C114.605 13.72 114.645 13.36 114.645 12.88V2.96C114.645 2.46667 114.605 2.10667 114.525 1.88C114.458 1.64 114.305 1.48 114.065 1.4C113.838 1.30667 113.505 1.25333 113.065 1.24V0.84C113.372 0.853333 113.765 0.866666 114.245 0.879999C114.738 0.893333 115.265 0.899999 115.825 0.899999C116.332 0.899999 116.825 0.893333 117.305 0.879999C117.798 0.866666 118.205 0.853333 118.525 0.84ZM131.477 0.84C131.424 1.4 131.384 1.94667 131.357 2.48C131.344 3 131.337 3.4 131.337 3.68C131.337 3.98667 131.344 4.28 131.357 4.56C131.37 4.84 131.384 5.08 131.397 5.28H130.937C130.804 4.28 130.624 3.49333 130.397 2.92C130.184 2.34667 129.87 1.93333 129.457 1.68C129.044 1.42667 128.45 1.3 127.677 1.3H126.817V12.7C126.817 13.2333 126.864 13.6333 126.957 13.9C127.064 14.1667 127.264 14.3467 127.557 14.44C127.864 14.52 128.304 14.5733 128.877 14.6V15C128.504 14.9733 128.024 14.96 127.437 14.96C126.85 14.9467 126.25 14.94 125.637 14.94C124.997 14.94 124.39 14.9467 123.817 14.96C123.257 14.96 122.804 14.9733 122.457 15V14.6C123.03 14.5733 123.464 14.52 123.757 14.44C124.05 14.3467 124.25 14.1667 124.357 13.9C124.464 13.6333 124.517 13.2333 124.517 12.7V1.3H123.637C122.89 1.3 122.304 1.42667 121.877 1.68C121.45 1.93333 121.13 2.34667 120.917 2.92C120.704 3.49333 120.53 4.28 120.397 5.28H119.937C119.964 5.08 119.977 4.84 119.977 4.56C119.99 4.28 119.997 3.98667 119.997 3.68C119.997 3.4 119.984 3 119.957 2.48C119.944 1.94667 119.91 1.4 119.857 0.84C120.43 0.853333 121.057 0.866666 121.737 0.879999C122.417 0.893333 123.104 0.899999 123.797 0.899999C124.49 0.899999 125.117 0.899999 125.677 0.899999C126.237 0.899999 126.857 0.899999 127.537 0.899999C128.217 0.899999 128.904 0.893333 129.597 0.879999C130.29 0.866666 130.917 0.853333 131.477 0.84ZM139.631 0.559999C140.511 0.559999 141.231 0.693332 141.791 0.96C142.365 1.21333 142.871 1.51333 143.311 1.86C143.578 2.06 143.778 2.08667 143.911 1.94C144.058 1.78 144.158 1.41333 144.211 0.84H144.671C144.645 1.34667 144.625 1.96 144.611 2.68C144.598 3.38667 144.591 4.33333 144.591 5.52H144.131C144.038 4.93333 143.945 4.45333 143.851 4.08C143.771 3.70667 143.658 3.38667 143.511 3.12C143.378 2.85333 143.191 2.59333 142.951 2.34C142.565 1.86 142.091 1.51333 141.531 1.3C140.971 1.08667 140.378 0.979999 139.751 0.979999C139.071 0.979999 138.471 1.15333 137.951 1.5C137.431 1.83333 136.991 2.31333 136.631 2.94C136.285 3.56667 136.018 4.30667 135.831 5.16C135.645 6.01333 135.551 6.94667 135.551 7.96C135.551 9 135.651 9.94667 135.851 10.8C136.051 11.64 136.338 12.3667 136.711 12.98C137.098 13.58 137.558 14.0467 138.091 14.38C138.638 14.7 139.245 14.86 139.911 14.86C140.458 14.86 141.025 14.7533 141.611 14.54C142.198 14.3133 142.665 13.9733 143.011 13.52C143.385 13.12 143.638 12.6733 143.771 12.18C143.918 11.6733 144.038 10.9867 144.131 10.12H144.591C144.591 11.3467 144.598 12.34 144.611 13.1C144.625 13.8467 144.645 14.48 144.671 15H144.211C144.158 14.4267 144.065 14.0667 143.931 13.92C143.811 13.7733 143.605 13.7933 143.311 13.98C142.818 14.3267 142.291 14.6333 141.731 14.9C141.185 15.1533 140.478 15.28 139.611 15.28C138.291 15.28 137.138 14.9933 136.151 14.42C135.165 13.8467 134.398 13.02 133.851 11.94C133.305 10.86 133.031 9.56 133.031 8.04C133.031 6.54667 133.311 5.24 133.871 4.12C134.445 3 135.225 2.12667 136.211 1.5C137.198 0.873332 138.338 0.559999 139.631 0.559999ZM155.098 15V14.6C155.551 14.5733 155.891 14.52 156.118 14.44C156.345 14.36 156.491 14.2 156.558 13.96C156.638 13.72 156.678 13.36 156.678 12.88V2.96C156.678 2.46667 156.638 2.10667 156.558 1.88C156.491 1.64 156.338 1.48 156.098 1.4C155.871 1.30667 155.538 1.25333 155.098 1.24V0.84C155.431 0.853333 155.845 0.866666 156.338 0.879999C156.845 0.893333 157.345 0.899999 157.838 0.899999C158.398 0.899999 158.918 0.893333 159.398 0.879999C159.878 0.866666 160.265 0.853333 160.558 0.84V1.24C160.118 1.25333 159.785 1.30667 159.558 1.4C159.331 1.48 159.178 1.64 159.098 1.88C159.018 2.10667 158.978 2.46667 158.978 2.96V12.88C158.978 13.36 159.018 13.72 159.098 13.96C159.178 14.2 159.331 14.36 159.558 14.44C159.785 14.52 160.118 14.5733 160.558 14.6V15C160.265 14.9733 159.878 14.96 159.398 14.96C158.918 14.9467 158.398 14.94 157.838 14.94C157.345 14.94 156.845 14.9467 156.338 14.96C155.845 14.96 155.431 14.9733 155.098 15ZM146.698 15V14.6C147.151 14.5733 147.491 14.52 147.718 14.44C147.945 14.36 148.091 14.2 148.158 13.96C148.238 13.72 148.278 13.36 148.278 12.88V2.96C148.278 2.46667 148.238 2.10667 148.158 1.88C148.091 1.64 147.938 1.48 147.698 1.4C147.471 1.30667 147.138 1.25333 146.698 1.24V0.84C147.005 0.853333 147.398 0.866666 147.878 0.879999C148.371 0.893333 148.898 0.899999 149.458 0.899999C149.965 0.899999 150.458 0.893333 150.938 0.879999C151.431 0.866666 151.838 0.853333 152.158 0.84V1.24C151.718 1.25333 151.385 1.30667 151.158 1.4C150.931 1.48 150.778 1.64 150.698 1.88C150.618 2.10667 150.578 2.46667 150.578 2.96V12.88C150.578 13.36 150.618 13.72 150.698 13.96C150.778 14.2 150.931 14.36 151.158 14.44C151.385 14.52 151.718 14.5733 152.158 14.6V15C151.838 14.9733 151.431 14.96 150.938 14.96C150.458 14.9467 149.965 14.94 149.458 14.94C148.898 14.94 148.371 14.9467 147.878 14.96C147.398 14.96 147.005 14.9733 146.698 15ZM149.678 8.08V7.68H157.578V8.08H149.678ZM172.348 0.84C172.294 1.34667 172.254 1.84 172.228 2.32C172.214 2.78667 172.208 3.14667 172.208 3.4C172.208 3.65333 172.214 3.89333 172.228 4.12C172.241 4.34667 172.254 4.53333 172.268 4.68H171.808C171.714 3.82667 171.568 3.15333 171.368 2.66C171.181 2.16667 170.894 1.82 170.508 1.62C170.134 1.40667 169.608 1.3 168.928 1.3H167.548C167.121 1.3 166.794 1.34 166.568 1.42C166.354 1.48667 166.208 1.63333 166.128 1.86C166.048 2.07333 166.008 2.41333 166.008 2.88V12.96C166.008 13.4133 166.048 13.7533 166.128 13.98C166.208 14.2067 166.354 14.36 166.568 14.44C166.794 14.5067 167.121 14.54 167.548 14.54H168.848C169.608 14.54 170.208 14.42 170.648 14.18C171.101 13.94 171.441 13.5467 171.668 13C171.908 12.4533 172.088 11.7067 172.208 10.76H172.668C172.628 11.1467 172.608 11.6533 172.608 12.28C172.608 12.5467 172.614 12.9333 172.628 13.44C172.654 13.9467 172.694 14.4667 172.748 15C172.068 14.9733 171.301 14.96 170.448 14.96C169.594 14.9467 168.834 14.94 168.168 14.94C167.861 14.94 167.468 14.94 166.988 14.94C166.508 14.94 165.988 14.9467 165.428 14.96C164.881 14.96 164.321 14.9667 163.748 14.98C163.188 14.98 162.648 14.9867 162.128 15V14.6C162.581 14.5733 162.921 14.52 163.148 14.44C163.374 14.36 163.521 14.2 163.588 13.96C163.668 13.72 163.708 13.36 163.708 12.88V2.96C163.708 2.46667 163.668 2.10667 163.588 1.88C163.521 1.64 163.368 1.48 163.128 1.4C162.901 1.30667 162.568 1.25333 162.128 1.24V0.84C162.648 0.853333 163.188 0.866666 163.748 0.879999C164.321 0.879999 164.881 0.886666 165.428 0.899999C165.988 0.899999 166.508 0.899999 166.988 0.899999C167.468 0.899999 167.861 0.899999 168.168 0.899999C168.781 0.899999 169.474 0.899999 170.248 0.899999C171.034 0.886666 171.734 0.866666 172.348 0.84ZM169.028 7.68C169.028 7.68 169.028 7.74667 169.028 7.88C169.028 8.01333 169.028 8.08 169.028 8.08H165.408C165.408 8.08 165.408 8.01333 165.408 7.88C165.408 7.74667 165.408 7.68 165.408 7.68H169.028ZM169.608 5.04C169.554 5.8 169.528 6.38 169.528 6.78C169.541 7.18 169.548 7.54667 169.548 7.88C169.548 8.21333 169.554 8.58 169.568 8.98C169.581 9.38 169.614 9.96 169.668 10.72H169.208C169.141 10.28 169.054 9.86 168.948 9.46C168.841 9.04667 168.648 8.71333 168.368 8.46C168.101 8.20667 167.681 8.08 167.108 8.08V7.68C167.534 7.68 167.868 7.59333 168.108 7.42C168.361 7.24667 168.554 7.02 168.688 6.74C168.821 6.46 168.914 6.17333 168.968 5.88C169.034 5.57333 169.094 5.29333 169.148 5.04H169.608ZM187.251 0.84V1.24C186.798 1.26667 186.458 1.34667 186.231 1.48C186.005 1.61333 185.851 1.83333 185.771 2.14C185.705 2.43333 185.671 2.85333 185.671 3.4V15.08C185.565 15.08 185.458 15.08 185.351 15.08C185.245 15.08 185.131 15.08 185.011 15.08L176.531 2.76V12.36C176.531 12.92 176.571 13.36 176.651 13.68C176.731 13.9867 176.905 14.2067 177.171 14.34C177.438 14.4733 177.845 14.56 178.391 14.6V15C178.138 14.9733 177.811 14.96 177.411 14.96C177.025 14.9467 176.658 14.94 176.311 14.94C175.978 14.94 175.645 14.9467 175.311 14.96C174.978 14.96 174.705 14.9733 174.491 15V14.6C174.931 14.56 175.265 14.48 175.491 14.36C175.718 14.2267 175.871 14.0067 175.951 13.7C176.031 13.3933 176.071 12.9733 176.071 12.44V2.96C176.071 2.46667 176.031 2.10667 175.951 1.88C175.871 1.64 175.718 1.48 175.491 1.4C175.265 1.30667 174.931 1.25333 174.491 1.24V0.84C174.705 0.853333 174.978 0.866666 175.311 0.879999C175.645 0.893333 175.978 0.899999 176.311 0.899999C176.605 0.899999 176.891 0.893333 177.171 0.879999C177.451 0.866666 177.698 0.853333 177.911 0.84L185.211 11.28V3.48C185.211 2.90667 185.165 2.46667 185.071 2.16C184.991 1.85333 184.818 1.63333 184.551 1.5C184.285 1.35333 183.885 1.26667 183.351 1.24V0.84C183.591 0.853333 183.911 0.866666 184.311 0.879999C184.711 0.893333 185.085 0.899999 185.431 0.899999C185.765 0.899999 186.098 0.893333 186.431 0.879999C186.765 0.866666 187.038 0.853333 187.251 0.84ZM193.21 0.599999C193.917 0.599999 194.457 0.68 194.83 0.84C195.203 0.999999 195.53 1.17333 195.81 1.36C195.97 1.45333 196.097 1.52667 196.19 1.58C196.297 1.62 196.397 1.64 196.49 1.64C196.623 1.64 196.717 1.56667 196.77 1.42C196.837 1.27333 196.89 1.05333 196.93 0.76H197.39C197.377 1 197.357 1.28667 197.33 1.62C197.317 1.94 197.303 2.36667 197.29 2.9C197.29 3.43333 197.29 4.13333 197.29 5H196.83C196.79 4.34667 196.643 3.71333 196.39 3.1C196.15 2.48667 195.79 1.98667 195.31 1.6C194.843 1.21333 194.243 1.02 193.51 1.02C192.83 1.02 192.263 1.22667 191.81 1.64C191.37 2.04 191.15 2.57333 191.15 3.24C191.15 3.82667 191.297 4.32 191.59 4.72C191.883 5.10667 192.283 5.47333 192.79 5.82C193.31 6.15333 193.897 6.52667 194.55 6.94C195.217 7.36667 195.817 7.79333 196.35 8.22C196.883 8.63333 197.303 9.09333 197.61 9.6C197.917 10.1067 198.07 10.72 198.07 11.44C198.07 12.3067 197.863 13.0267 197.45 13.6C197.05 14.16 196.51 14.58 195.83 14.86C195.15 15.14 194.403 15.28 193.59 15.28C192.843 15.28 192.25 15.2 191.81 15.04C191.37 14.88 190.997 14.7133 190.69 14.54C190.397 14.3533 190.17 14.26 190.01 14.26C189.877 14.26 189.777 14.3333 189.71 14.48C189.657 14.6267 189.61 14.8467 189.57 15.14H189.11C189.137 14.8467 189.15 14.5067 189.15 14.12C189.163 13.72 189.17 13.2 189.17 12.56C189.183 11.92 189.19 11.1133 189.19 10.14H189.65C189.703 10.9667 189.85 11.74 190.09 12.46C190.343 13.18 190.723 13.76 191.23 14.2C191.75 14.6267 192.437 14.84 193.29 14.84C193.743 14.84 194.163 14.7533 194.55 14.58C194.937 14.4067 195.25 14.1333 195.49 13.76C195.73 13.3867 195.85 12.9067 195.85 12.32C195.85 11.7733 195.717 11.2933 195.45 10.88C195.197 10.4667 194.837 10.0867 194.37 9.74C193.917 9.38 193.383 9.01333 192.77 8.64C192.143 8.24 191.557 7.84 191.01 7.44C190.463 7.04 190.023 6.57333 189.69 6.04C189.37 5.50667 189.21 4.87333 189.21 4.14C189.21 3.32667 189.397 2.66 189.77 2.14C190.157 1.62 190.65 1.23333 191.25 0.979999C191.863 0.726666 192.517 0.599999 193.21 0.599999Z" fill="white"/>
</svg>
