<?xml version="1.0" encoding="utf-8"?><svg viewBox="0 0 1202 725" xmlns="http://www.w3.org/2000/svg" xmlns:xlink="http://www.w3.org/1999/xlink"><style>:root>svg{display:none}:root>svg:target{display:block}</style><svg fill="none" viewBox="0 0 42 30" id="angle-arrow" xmlns="http://www.w3.org/2000/svg"><path d="M36.752 29.985a2 2 0 0 0 2.233-1.737l2.232-17.86a2 2 0 0 0-3.969-.497l-1.984 15.876-15.877-1.984a2 2 0 0 0-.496 3.969l17.86 2.233ZM18.333 4l1.579-1.228L18.226.604l-1.546 2.27L18.333 4ZM3.653 29.125l16.334-24-3.307-2.25-16.333 24 3.306 2.25ZM16.755 5.228l18.666 24 3.158-2.456-18.667-24-3.157 2.456Z" fill="#000"/></svg><svg fill="none" viewBox="0 0 29 12" id="arrow-left" xmlns="http://www.w3.org/2000/svg"><path d="M.47 5.47a.75.75 0 0 0 0 1.06l4.773 4.773a.75.75 0 1 0 1.06-1.06L2.061 6l4.242-4.243a.75.75 0 1 0-1.06-1.06L.47 5.47ZM29 5.25H1v1.5h28v-1.5Z" fill="#000"/></svg><svg fill="none" viewBox="0 0 30 24" id="arrow-right" xmlns="http://www.w3.org/2000/svg"><path d="M29.06 13.06a1.5 1.5 0 0 0 0-2.12l-9.545-9.547a1.5 1.5 0 1 0-2.122 2.122L25.88 12l-8.486 8.485a1.5 1.5 0 1 0 2.122 2.122l9.546-9.546ZM0 13.5h28v-3H0v3Z" fill="#fff"/></svg><svg fill="none" viewBox="0 0 32 8" id="arrow-right-long" xmlns="http://www.w3.org/2000/svg"><path d="M31.354 4.354a.5.5 0 0 0 0-.708L28.172.464a.5.5 0 1 0-.707.708L30.293 4l-2.828 2.828a.5.5 0 1 0 .707.708l3.182-3.182ZM0 4.5h31v-1H0v1Z" fill="#fff"/></svg><svg fill="none" viewBox="0 0 47 46" id="facebook" xmlns="http://www.w3.org/2000/svg"><path d="M23.982 0C11.3 0 .98 10.317.98 23S11.3 46 23.982 46c12.682 0 23.001-10.317 23.001-23S36.663 0 23.982 0Zm0 44.468c-11.837 0-21.467-9.63-21.467-21.468 0-11.837 9.63-21.468 21.467-21.468 11.837 0 21.467 9.63 21.467 21.468 0 11.837-9.63 21.468-21.467 21.468Z" fill="#fff"/><path d="M29.003 10.09h-3.827c-4.874-.049-5.497 2.968-5.497 6.233v2.374h-2.151a.64.64 0 0 0-.718.717v4.303a.638.638 0 0 0 .718.718h2.151v10.758a.645.645 0 0 0 .722.717h4.382c.423.049.766-.294.631-.717l.003-10.758h3.586a.64.64 0 0 0 .717-.718v-4.303a.638.638 0 0 0-.717-.717h-3.59l.004-2.152c.14-.916.14-.767.99-.717h2.566c.2-.044.412-.02.56-.165.15-.145.236-.343.186-.552v-4.304a.636.636 0 0 0-.716-.717Zm-.767 4.223-1.8-.069c-2.227 0-2.413 1.21-2.413 2.448l-.006 2.72a.766.766 0 0 0 .766.767h3.503v2.771h-3.5a.768.768 0 0 0-.768.766l-.001 10.76h-2.903V23.717c0-.423-.289-.766-.713-.766h-2.156v-2.77H20.4a.767.767 0 0 0 .542-.225c.143-.145.17-.34.17-.543V16.32c0-3.216.649-4.748 4.062-4.748h3.06v2.74Z" fill="#fff"/></svg><svg fill="none" viewBox="0 0 199 16" id="logo" xmlns="http://www.w3.org/2000/svg"><path d="M.78.84c.307.013.7.027 1.18.04.493.013.98.02 1.46.02.64 0 1.247-.007 1.82-.02.587-.013 1-.02 1.24-.02 1.693 0 2.96.367 3.8 1.1.84.733 1.26 1.68 1.26 2.84 0 .48-.087.987-.26 1.52a3.84 3.84 0 0 1-.86 1.46c-.413.44-.973.8-1.68 1.08s-1.607.42-2.7.42H4.08v-.4h1.76c.893 0 1.573-.18 2.04-.54.48-.36.8-.833.96-1.42.173-.587.26-1.22.26-1.9 0-1.267-.227-2.213-.68-2.84-.453-.627-1.24-.94-2.36-.94-.573 0-.953.113-1.14.34-.173.227-.26.687-.26 1.38v9.88c0 .493.053.867.16 1.12.107.24.307.4.6.48.293.08.727.127 1.3.14V15c-.36-.027-.827-.04-1.4-.04a76.808 76.808 0 0 0-1.78-.02 57.2 57.2 0 0 0-1.54.02c-.48 0-.887.013-1.22.04v-.4c.453-.027.793-.08 1.02-.16a.668.668 0 0 0 .44-.48c.08-.24.12-.6.12-1.08V2.96c0-.493-.04-.853-.12-1.08a.669.669 0 0 0-.46-.48c-.227-.093-.56-.147-1-.16v-.4Zm12.031 0c.307.013.7.027 1.18.04.494.013.98.02 1.46.02.64 0 1.247-.007 1.82-.02.587-.013 1-.02 1.24-.02 1.134 0 2.074.147 2.82.44.76.293 1.32.707 1.68 1.24.374.52.56 1.12.56 1.8 0 .413-.086.853-.26 1.32-.16.453-.446.88-.86 1.28-.413.387-.973.707-1.68.96-.706.253-1.606.38-2.7.38h-1.92v-.4h1.72c.894 0 1.574-.147 2.04-.44.48-.307.8-.707.96-1.2.174-.507.26-1.067.26-1.68 0-1.053-.226-1.867-.68-2.44-.453-.587-1.24-.88-2.36-.88-.573 0-.953.113-1.14.34-.173.227-.26.687-.26 1.38v9.92c0 .48.04.84.12 1.08.08.24.234.4.46.48.227.08.56.133 1 .16v.4a15.18 15.18 0 0 0-1.22-.04 58.79 58.79 0 0 0-3.06 0c-.48 0-.873.013-1.18.04v-.4c.454-.027.794-.08 1.02-.16a.668.668 0 0 0 .44-.48c.08-.24.12-.6.12-1.08V2.96c0-.493-.04-.853-.12-1.08a.669.669 0 0 0-.46-.48c-.226-.093-.56-.147-1-.16v-.4Zm3.38 7.1c.68.027 1.227.06 1.64.1.414.027.76.053 1.04.08.28.027.54.06.78.1 1 .133 1.727.4 2.18.8.467.4.787 1.013.96 1.84l.5 2.04c.12.573.247.98.38 1.22.147.24.36.36.64.36a.9.9 0 0 0 .52-.18c.147-.12.3-.28.46-.48l.28.22c-.306.413-.626.727-.96.94-.333.2-.78.3-1.34.3-.573 0-1.066-.147-1.48-.44-.4-.307-.686-.88-.86-1.72l-.4-2a11.572 11.572 0 0 0-.4-1.48c-.146-.427-.353-.76-.62-1-.253-.24-.626-.36-1.12-.36h-2.16l-.04-.34ZM36.293.84c-.053.507-.093 1-.12 1.48-.013.467-.02.827-.02 1.08 0 .253.007.493.02.72.013.227.027.413.04.56h-.46c-.093-.853-.24-1.527-.44-2.02-.187-.493-.473-.84-.86-1.04-.373-.213-.9-.32-1.58-.32h-1.38c-.427 0-.753.04-.98.12a.66.66 0 0 0-.44.44c-.08.213-.12.553-.12 1.02v10.08c0 .453.04.793.12 1.02a.72.72 0 0 0 .44.46c.227.067.553.1.98.1h1.3c.76 0 1.36-.12 1.8-.36.453-.24.793-.633 1.02-1.18.24-.547.42-1.293.54-2.24h.46c-.04.387-.06.893-.06 1.52 0 .267.007.653.02 1.16.027.507.067 1.027.12 1.56-.68-.027-1.447-.04-2.3-.04a148.05 148.05 0 0 0-2.28-.02h-1.18c-.48 0-1 .007-1.56.02-.547 0-1.107.007-1.68.02-.56 0-1.1.007-1.62.02v-.4c.453-.027.793-.08 1.02-.16a.668.668 0 0 0 .44-.48c.08-.24.12-.6.12-1.08V2.96c0-.493-.04-.853-.12-1.08a.669.669 0 0 0-.46-.48c-.227-.093-.56-.147-1-.16v-.4l1.62.04c.573 0 1.133.007 1.68.02h4.82a80.205 80.205 0 0 0 2.1-.06Zm-3.32 6.84v.4h-3.62v-.4h3.62Zm.58-2.64c-.053.76-.08 1.34-.08 1.74.013.4.02.767.02 1.1 0 .333.007.7.02 1.1.013.4.047.98.1 1.74h-.46c-.067-.44-.153-.86-.26-1.26a1.976 1.976 0 0 0-.58-1c-.267-.253-.687-.38-1.26-.38v-.4c.427 0 .76-.087 1-.26.253-.173.447-.4.58-.68.133-.28.227-.567.28-.86.067-.307.127-.587.18-.84h.46ZM54.657.84v.4c-.454.013-.794.067-1.02.16a.72.72 0 0 0-.46.48c-.067.227-.1.587-.1 1.08v9.92c0 .48.033.84.1 1.08.08.24.233.4.46.48.226.08.566.133 1.02.16v.4c-.334-.027-.747-.04-1.24-.04a58.795 58.795 0 0 0-3.08 0c-.494 0-.887.013-1.18.04v-.4c.453-.027.793-.08 1.02-.16.24-.08.4-.24.48-.48.08-.24.12-.6.12-1.08V1.94l.1.04-4.92 13.1h-.32l-5.16-12.96v10.24c0 .56.04 1 .12 1.32.08.307.253.527.52.66.266.133.673.22 1.22.26v.4a9.703 9.703 0 0 0-.98-.04 32.07 32.07 0 0 0-1.1-.02c-.334 0-.667.007-1 .02-.334 0-.607.013-.82.04v-.4c.44-.04.773-.12 1-.24.226-.133.38-.353.46-.66.08-.307.12-.727.12-1.26V2.96c0-.493-.04-.853-.12-1.08a.72.72 0 0 0-.46-.48c-.227-.093-.56-.147-1-.16v-.4a38 38 0 0 0 .82.04c.333.013.666.02 1 .02.386 0 .773-.007 1.16-.02.4-.013.74-.027 1.02-.04l4.42 11.36-.38.26L50.817.9h1.1c.506 0 1.006-.007 1.5-.02a98.47 98.47 0 0 0 1.24-.04Zm7.013 0v.4c-.44.013-.774.067-1 .16a.72.72 0 0 0-.46.48c-.08.227-.12.587-.12 1.08v9.92c0 .48.04.84.12 1.08.08.24.233.4.46.48.226.08.56.133 1 .16v.4a15.18 15.18 0 0 0-1.22-.04 58.79 58.79 0 0 0-3.06 0c-.48 0-.874.013-1.18.04v-.4c.453-.027.793-.08 1.02-.16a.668.668 0 0 0 .44-.48c.08-.24.12-.6.12-1.08V2.96c0-.493-.04-.853-.12-1.08a.669.669 0 0 0-.46-.48c-.227-.093-.56-.147-1-.16v-.4c.306.013.7.027 1.18.04a58.649 58.649 0 0 0 3.06 0c.493-.013.9-.027 1.22-.04Zm13.971 0v.4c-.44.027-.773.107-1 .24-.226.133-.38.353-.46.66-.08.293-.12.713-.12 1.26v5.78c0 .907-.06 1.713-.18 2.42-.12.707-.333 1.313-.64 1.82-.333.56-.826 1.013-1.48 1.36-.64.333-1.406.5-2.3.5-.64 0-1.26-.073-1.86-.22a3.565 3.565 0 0 1-1.58-.84c-.4-.36-.713-.753-.94-1.18-.226-.427-.38-.94-.46-1.54-.08-.613-.12-1.367-.12-2.26V2.96c0-.493-.04-.853-.12-1.08a.668.668 0 0 0-.44-.48c-.226-.093-.566-.147-1.02-.16v-.4c.307.013.7.027 1.18.04a58.649 58.649 0 0 0 3.08 0c.507-.013.92-.027 1.24-.04v.4c-.453.013-.8.067-1.04.16a.72.72 0 0 0-.46.48c-.08.227-.12.587-.12 1.08v6.92c0 .68.034 1.307.1 1.88.08.573.22 1.073.42 1.5.214.413.52.74.92.98.414.227.947.34 1.6.34.987 0 1.747-.22 2.28-.66.547-.453.927-1.067 1.14-1.84.227-.787.34-1.68.34-2.68V3.48c0-.573-.053-1.013-.16-1.32a1.11 1.11 0 0 0-.56-.66c-.266-.147-.646-.233-1.14-.26v-.4c.254.013.58.027.98.04.4.013.767.02 1.1.02.347 0 .68-.007 1-.02.334-.013.607-.027.82-.04Zm17.492 0v.4c-.453.013-.793.067-1.02.16a.72.72 0 0 0-.46.48c-.066.227-.1.587-.1 1.08v9.92c0 .48.034.84.1 1.08.08.24.234.4.46.48.227.08.567.133 1.02.16v.4a15.97 15.97 0 0 0-1.24-.04 58.79 58.79 0 0 0-3.08 0c-.493 0-.886.013-1.18.04v-.4c.454-.027.794-.08 1.02-.16.24-.08.4-.24.48-.48.08-.24.12-.6.12-1.08V1.94l.1.04-4.92 13.1h-.32l-5.16-12.96v10.24c0 .56.04 1 .12 1.32.08.307.254.527.52.66.267.133.674.22 1.22.26v.4a9.704 9.704 0 0 0-.98-.04c-.386-.013-.753-.02-1.1-.02-.333 0-.666.007-1 .02-.333 0-.606.013-.82.04v-.4c.44-.04.774-.12 1-.24.227-.133.38-.353.46-.66.08-.307.12-.727.12-1.26V2.96c0-.493-.04-.853-.12-1.08a.72.72 0 0 0-.46-.48c-.226-.093-.56-.147-1-.16v-.4c.214.013.487.027.82.04.334.013.667.02 1 .02.387 0 .774-.007 1.16-.02.4-.013.74-.027 1.02-.04l4.42 11.36-.38.26L89.293.9h1.1c.507 0 1.007-.007 1.5-.02.494-.013.907-.027 1.24-.04Zm18.456 0v.4c-.427.067-.853.22-1.28.46-.413.227-.833.607-1.26 1.14l-3.84 4.8.68-1.22 4.8 6.96c.213.32.44.573.68.76.253.187.573.34.96.46v.4c-.36-.027-.793-.04-1.3-.04a51.79 51.79 0 0 0-1.34-.02c-.24 0-.54.007-.9.02-.347 0-.787.013-1.32.04v-.4c.493-.027.793-.107.9-.24.12-.133.073-.353-.14-.66l-2.9-4.5c-.24-.373-.453-.653-.64-.84-.187-.2-.38-.327-.58-.38a2.767 2.767 0 0 0-.74-.12v-.42c.56-.013 1.04-.14 1.44-.38.413-.24.8-.567 1.16-.98l1.66-2.1c.467-.573.767-1.06.9-1.46.133-.413.1-.727-.1-.94-.2-.213-.573-.327-1.12-.34v-.4l.82.04c.28 0 .56.007.84.02h.86c.36 0 .687-.007.98-.02.307-.013.567-.027.78-.04Zm-6.56 0v.4c-.44.013-.773.067-1 .16a.72.72 0 0 0-.46.48c-.08.227-.12.587-.12 1.08v9.92c0 .48.04.84.12 1.08.08.24.233.4.46.48.227.08.56.133 1 .16v.4c-.32-.027-.727-.04-1.22-.04a58.774 58.774 0 0 0-3.06 0c-.48 0-.873.013-1.18.04v-.4c.453-.027.793-.08 1.02-.16a.668.668 0 0 0 .44-.48c.08-.24.12-.6.12-1.08V2.96c0-.493-.04-.853-.12-1.08a.67.67 0 0 0-.46-.48c-.227-.093-.56-.147-1-.16v-.4c.307.013.7.027 1.18.04a58.633 58.633 0 0 0 3.06 0c.493-.013.9-.027 1.22-.04Zm13.496 0v.4c-.44.013-.773.067-1 .16a.72.72 0 0 0-.46.48c-.08.227-.12.587-.12 1.08v9.92c0 .48.04.84.12 1.08.08.24.233.4.46.48.227.08.56.133 1 .16v.4c-.32-.027-.727-.04-1.22-.04a58.774 58.774 0 0 0-3.06 0c-.48 0-.873.013-1.18.04v-.4c.453-.027.793-.08 1.02-.16a.668.668 0 0 0 .44-.48c.08-.24.12-.6.12-1.08V2.96c0-.493-.04-.853-.12-1.08a.67.67 0 0 0-.46-.48c-.227-.093-.56-.147-1-.16v-.4c.307.013.7.027 1.18.04a58.633 58.633 0 0 0 3.06 0c.493-.013.9-.027 1.22-.04Zm12.952 0c-.053.56-.093 1.107-.12 1.64-.013.52-.02.92-.02 1.2 0 .307.007.6.02.88.013.28.027.52.04.72h-.46c-.133-1-.313-1.787-.54-2.36-.213-.573-.527-.987-.94-1.24-.413-.253-1.007-.38-1.78-.38h-.86v11.4c0 .533.047.933.14 1.2a.905.905 0 0 0 .6.54c.307.08.747.133 1.32.16v.4c-.373-.027-.853-.04-1.44-.04a79.485 79.485 0 0 0-3.62 0c-.56 0-1.013.013-1.36.04v-.4c.573-.027 1.007-.08 1.3-.16a.905.905 0 0 0 .6-.54c.107-.267.16-.667.16-1.2V1.3h-.88c-.747 0-1.333.127-1.76.38-.427.253-.747.667-.96 1.24-.213.573-.387 1.36-.52 2.36h-.46c.027-.2.04-.44.04-.72.013-.28.02-.573.02-.88 0-.28-.013-.68-.04-1.2a23.497 23.497 0 0 0-.1-1.64c.573.013 1.2.027 1.88.04.68.013 1.367.02 2.06.02h3.74c.68 0 1.367-.007 2.06-.02.693-.013 1.32-.027 1.88-.04Zm8.154-.28c.88 0 1.6.133 2.16.4.574.253 1.08.553 1.52.9.267.2.467.227.6.08.147-.16.247-.527.3-1.1h.46c-.026.507-.046 1.12-.06 1.84-.013.707-.02 1.653-.02 2.84h-.46a17.013 17.013 0 0 0-.28-1.44 3.508 3.508 0 0 0-.34-.96 3.258 3.258 0 0 0-.56-.78 3.307 3.307 0 0 0-1.42-1.04 4.956 4.956 0 0 0-1.78-.32c-.68 0-1.28.173-1.8.52-.52.333-.96.813-1.32 1.44-.346.627-.613 1.367-.8 2.22-.186.853-.28 1.787-.28 2.8 0 1.04.1 1.987.3 2.84.2.84.487 1.567.86 2.18.387.6.847 1.067 1.38 1.4.547.32 1.154.48 1.82.48a4.96 4.96 0 0 0 1.7-.32c.587-.227 1.054-.567 1.4-1.02.374-.4.627-.847.76-1.34.147-.507.267-1.193.36-2.06h.46c0 1.227.007 2.22.02 2.98.014.747.034 1.38.06 1.9h-.46c-.053-.573-.146-.933-.28-1.08-.12-.147-.326-.127-.62.06-.493.347-1.02.653-1.58.92-.546.253-1.253.38-2.12.38-1.32 0-2.473-.287-3.46-.86-.986-.573-1.753-1.4-2.3-2.48-.546-1.08-.82-2.38-.82-3.9 0-1.493.28-2.8.84-3.92.574-1.12 1.354-1.993 2.34-2.62.987-.627 2.127-.94 3.42-.94ZM155.098 15v-.4c.453-.027.793-.08 1.02-.16a.668.668 0 0 0 .44-.48c.08-.24.12-.6.12-1.08V2.96c0-.493-.04-.853-.12-1.08a.67.67 0 0 0-.46-.48c-.227-.093-.56-.147-1-.16v-.4c.333.013.747.027 1.24.04a57.06 57.06 0 0 0 3.06 0c.48-.013.867-.027 1.16-.04v.4c-.44.013-.773.067-1 .16a.72.72 0 0 0-.46.48c-.08.227-.12.587-.12 1.08v9.92c0 .48.04.84.12 1.08.08.24.233.4.46.48.227.08.56.133 1 .16v.4c-.293-.027-.68-.04-1.16-.04a56.559 56.559 0 0 0-3.06 0c-.493 0-.907.013-1.24.04Zm-8.4 0v-.4c.453-.027.793-.08 1.02-.16a.668.668 0 0 0 .44-.48c.08-.24.12-.6.12-1.08V2.96c0-.493-.04-.853-.12-1.08a.67.67 0 0 0-.46-.48c-.227-.093-.56-.147-1-.16v-.4c.307.013.7.027 1.18.04a58.633 58.633 0 0 0 3.06 0c.493-.013.9-.027 1.22-.04v.4c-.44.013-.773.067-1 .16a.72.72 0 0 0-.46.48c-.08.227-.12.587-.12 1.08v9.92c0 .48.04.84.12 1.08.08.24.233.4.46.48.227.08.56.133 1 .16v.4c-.32-.027-.727-.04-1.22-.04a58.774 58.774 0 0 0-3.06 0c-.48 0-.873.013-1.18.04Zm2.98-6.92v-.4h7.9v.4h-7.9Zm22.67-7.24c-.054.507-.094 1-.12 1.48-.014.467-.02.827-.02 1.08a15.511 15.511 0 0 0 .06 1.28h-.46c-.094-.853-.24-1.527-.44-2.02-.187-.493-.474-.84-.86-1.04-.374-.213-.9-.32-1.58-.32h-1.38c-.427 0-.754.04-.98.12a.66.66 0 0 0-.44.44c-.08.213-.12.553-.12 1.02v10.08c0 .453.04.793.12 1.02.08.227.226.38.44.46.226.067.553.1.98.1h1.3c.76 0 1.36-.12 1.8-.36.453-.24.793-.633 1.02-1.18.24-.547.42-1.293.54-2.24h.46c-.04.387-.06.893-.06 1.52 0 .267.006.653.02 1.16.026.507.066 1.027.12 1.56-.68-.027-1.447-.04-2.3-.04-.854-.013-1.614-.02-2.28-.02h-1.18c-.48 0-1 .007-1.56.02-.547 0-1.107.007-1.68.02-.56 0-1.1.007-1.62.02v-.4c.453-.027.793-.08 1.02-.16a.67.67 0 0 0 .44-.48c.08-.24.12-.6.12-1.08V2.96c0-.493-.04-.853-.12-1.08a.67.67 0 0 0-.46-.48c-.227-.093-.56-.147-1-.16v-.4l1.62.04c.573 0 1.133.007 1.68.02h4.82a80.36 80.36 0 0 0 2.1-.06Zm-3.32 6.84v.4h-3.62v-.4h3.62Zm.58-2.64c-.054.76-.08 1.34-.08 1.74.013.4.02.767.02 1.1 0 .333.006.7.02 1.1.013.4.046.98.1 1.74h-.46c-.067-.44-.154-.86-.26-1.26-.107-.413-.3-.747-.58-1-.267-.253-.687-.38-1.26-.38v-.4c.426 0 .76-.087 1-.26.253-.173.446-.4.58-.68.133-.28.226-.567.28-.86l.18-.84h.46Zm17.643-4.2v.4c-.453.027-.793.107-1.02.24-.226.133-.38.353-.46.66-.066.293-.1.713-.1 1.26v11.68h-.66l-8.48-12.32v9.6c0 .56.04 1 .12 1.32.08.307.254.527.52.66.267.133.674.22 1.22.26v.4a9.699 9.699 0 0 0-.98-.04c-.386-.013-.753-.02-1.1-.02-.333 0-.666.007-1 .02-.333 0-.606.013-.82.04v-.4c.44-.04.774-.12 1-.24.227-.133.38-.353.46-.66.08-.307.12-.727.12-1.26V2.96c0-.493-.04-.853-.12-1.08a.72.72 0 0 0-.46-.48c-.226-.093-.56-.147-1-.16v-.4c.214.013.487.027.82.04.334.013.667.02 1 .02.294 0 .58-.007.86-.02.28-.013.527-.027.74-.04l7.3 10.44v-7.8c0-.573-.046-1.013-.14-1.32a.973.973 0 0 0-.52-.66c-.266-.147-.666-.233-1.2-.26v-.4a45.483 45.483 0 0 0 2.08.06c.334 0 .667-.007 1-.02.334-.013.607-.027.82-.04ZM193.21.6c.707 0 1.247.08 1.62.24.373.16.7.333.98.52l.38.22a.86.86 0 0 0 .3.06c.133 0 .227-.073.28-.22.067-.147.12-.367.16-.66h.46c-.013.24-.033.527-.06.86-.013.32-.027.747-.04 1.28V5h-.46a5.896 5.896 0 0 0-.44-1.9 3.54 3.54 0 0 0-1.08-1.5c-.467-.387-1.067-.58-1.8-.58-.68 0-1.247.207-1.7.62-.44.4-.66.933-.66 1.6 0 .587.147 1.08.44 1.48.293.387.693.753 1.2 1.1.52.333 1.107.707 1.76 1.12.667.427 1.267.853 1.8 1.28.533.413.953.873 1.26 1.38.307.507.46 1.12.46 1.84 0 .867-.207 1.587-.62 2.16-.4.56-.94.98-1.62 1.26-.68.28-1.427.42-2.24.42-.747 0-1.34-.08-1.78-.24a7.531 7.531 0 0 1-1.12-.5c-.293-.187-.52-.28-.68-.28-.133 0-.233.073-.3.22a3.44 3.44 0 0 0-.14.66h-.46c.027-.293.04-.633.04-1.02.013-.4.02-.92.02-1.56.013-.64.02-1.447.02-2.42h.46c.053.827.2 1.6.44 2.32.253.72.633 1.3 1.14 1.74.52.427 1.207.64 2.06.64.453 0 .873-.087 1.26-.26.387-.173.7-.447.94-.82.24-.373.36-.853.36-1.44 0-.547-.133-1.027-.4-1.44-.253-.413-.613-.793-1.08-1.14-.453-.36-.987-.727-1.6-1.1-.627-.4-1.213-.8-1.76-1.2a5.038 5.038 0 0 1-1.32-1.4c-.32-.533-.48-1.167-.48-1.9 0-.813.187-1.48.56-2 .387-.52.88-.907 1.48-1.16a5.083 5.083 0 0 1 1.96-.38Z" fill="#fff"/></svg><svg fill="none" viewBox="0 0 1202 725" id="portfolio-bg" xmlns="http://www.w3.org/2000/svg"><path stroke="#4B4B4B" stroke-width="2" d="M1201 0v938M601 0v938M915 0v938M286 0v725M1 0v938"/></svg><svg fill="none" viewBox="0 0 45 44" id="whatsapp" xmlns="http://www.w3.org/2000/svg"><path d="M22.5.5A21.52 21.52 0 0 0 3.65 32.36L1 43.5l11.14-2.65A21.499 21.499 0 1 0 22.5.5Zm-10.75 9.77h5.86a1 1 0 0 1 1 1 10.4 10.4 0 0 0 .66 3.91 1.93 1.93 0 0 1-.66 2.44l-2.05 2a18.602 18.602 0 0 0 3.52 4.79A18.6 18.6 0 0 0 24.85 28l2-2.05c1-1 1.46-1 2.44-.66a10.4 10.4 0 0 0 3.91.66 1.05 1.05 0 0 1 1 1v5.86a1.05 1.05 0 0 1-1 1 23.68 23.68 0 0 1-15.64-6.84 23.6 23.6 0 0 1-6.84-15.64 1.07 1.07 0 0 1 1.03-1.06Z" stroke="#fff" stroke-linecap="round" stroke-linejoin="round"/></svg></svg>