<?xml version="1.0" encoding="utf-8"?><svg viewBox="0 0 1202 725" xmlns="http://www.w3.org/2000/svg" xmlns:xlink="http://www.w3.org/1999/xlink"><style>:root>svg{display:none}:root>svg:target{display:block}</style><svg fill="none" viewBox="0 0 42 30" id="angle-arrow" xmlns="http://www.w3.org/2000/svg"><path d="M36.752 29.985a2 2 0 0 0 2.233-1.737l2.232-17.86a2 2 0 0 0-3.969-.497l-1.984 15.876-15.877-1.984a2 2 0 0 0-.496 3.969l17.86 2.233ZM18.333 4l1.579-1.228L18.226.604l-1.546 2.27L18.333 4ZM3.653 29.125l16.334-24-3.307-2.25-16.333 24 3.306 2.25ZM16.755 5.228l18.666 24 3.158-2.456-18.667-24-3.157 2.456Z" fill="#000"/></svg><svg fill="none" viewBox="0 0 29 12" id="arrow-left" xmlns="http://www.w3.org/2000/svg"><path d="M.47 5.47a.75.75 0 0 0 0 1.06l4.773 4.773a.75.75 0 1 0 1.06-1.06L2.061 6l4.242-4.243a.75.75 0 1 0-1.06-1.06L.47 5.47ZM29 5.25H1v1.5h28v-1.5Z" fill="#000"/></svg><svg fill="none" viewBox="0 0 30 24" id="arrow-right" xmlns="http://www.w3.org/2000/svg"><path d="M29.06 13.06a1.5 1.5 0 0 0 0-2.12l-9.545-9.547a1.5 1.5 0 1 0-2.122 2.122L25.88 12l-8.486 8.485a1.5 1.5 0 1 0 2.122 2.122l9.546-9.546ZM0 13.5h28v-3H0v3Z" fill="#fff"/></svg><svg fill="none" viewBox="0 0 32 8" id="arrow-right-long" xmlns="http://www.w3.org/2000/svg"><path d="M31.354 4.354a.5.5 0 0 0 0-.708L28.172.464a.5.5 0 1 0-.707.708L30.293 4l-2.828 2.828a.5.5 0 1 0 .707.708l3.182-3.182ZM0 4.5h31v-1H0v1Z" fill="#fff"/></svg><svg fill="none" viewBox="0 0 47 46" id="facebook" xmlns="http://www.w3.org/2000/svg"><path d="M23.982 0C11.3 0 .98 10.317.98 23S11.3 46 23.982 46c12.682 0 23.001-10.317 23.001-23S36.663 0 23.982 0Zm0 44.468c-11.837 0-21.467-9.63-21.467-21.468 0-11.837 9.63-21.468 21.467-21.468 11.837 0 21.467 9.63 21.467 21.468 0 11.837-9.63 21.468-21.467 21.468Z" fill="#fff"/><path d="M29.003 10.09h-3.827c-4.874-.049-5.497 2.968-5.497 6.233v2.374h-2.151a.64.64 0 0 0-.718.717v4.303a.638.638 0 0 0 .718.718h2.151v10.758a.645.645 0 0 0 .722.717h4.382c.423.049.766-.294.631-.717l.003-10.758h3.586a.64.64 0 0 0 .717-.718v-4.303a.638.638 0 0 0-.717-.717h-3.59l.004-2.152c.14-.916.14-.767.99-.717h2.566c.2-.044.412-.02.56-.165.15-.145.236-.343.186-.552v-4.304a.636.636 0 0 0-.716-.717Zm-.767 4.223-1.8-.069c-2.227 0-2.413 1.21-2.413 2.448l-.006 2.72a.766.766 0 0 0 .766.767h3.503v2.771h-3.5a.768.768 0 0 0-.768.766l-.001 10.76h-2.903V23.717c0-.423-.289-.766-.713-.766h-2.156v-2.77H20.4a.767.767 0 0 0 .542-.225c.143-.145.17-.34.17-.543V16.32c0-3.216.649-4.748 4.062-4.748h3.06v2.74Z" fill="#fff"/></svg><svg fill="none" viewBox="0 0 1202 725" id="portfolio-bg" xmlns="http://www.w3.org/2000/svg"><path stroke="#4B4B4B" stroke-width="2" d="M1201 0v938M601 0v938M915 0v938M286 0v725M1 0v938"/></svg><svg fill="none" viewBox="0 0 45 44" id="whatsapp" xmlns="http://www.w3.org/2000/svg"><path d="M22.5.5A21.52 21.52 0 0 0 3.65 32.36L1 43.5l11.14-2.65A21.499 21.499 0 1 0 22.5.5Zm-10.75 9.77h5.86a1 1 0 0 1 1 1 10.4 10.4 0 0 0 .66 3.91 1.93 1.93 0 0 1-.66 2.44l-2.05 2a18.602 18.602 0 0 0 3.52 4.79A18.6 18.6 0 0 0 24.85 28l2-2.05c1-1 1.46-1 2.44-.66a10.4 10.4 0 0 0 3.91.66 1.05 1.05 0 0 1 1 1v5.86a1.05 1.05 0 0 1-1 1 23.68 23.68 0 0 1-15.64-6.84 23.6 23.6 0 0 1-6.84-15.64 1.07 1.07 0 0 1 1.03-1.06Z" stroke="#fff" stroke-linecap="round" stroke-linejoin="round"/></svg></svg>