<svg width="42" height="30" viewBox="0 0 42 30" fill="none" xmlns="http://www.w3.org/2000/svg">
<path d="M36.7519 29.9846C37.848 30.1216 38.8476 29.3441 38.9846 28.2481L41.2172 10.3871C41.3542 9.29103 40.5767 8.29145 39.4807 8.15444C38.3847 8.01744 37.3851 8.79489 37.2481 9.89093L35.2635 25.7674L19.3871 23.7828C18.291 23.6458 17.2914 24.4233 17.1544 25.5193C17.0174 26.6153 17.7949 27.6149 18.8909 27.7519L36.7519 29.9846ZM18.3333 4L19.912 2.77212L18.2255 0.603697L16.6799 2.87475L18.3333 4ZM3.65342 29.1252L19.9868 5.12525L16.6799 2.87475L0.346572 26.8747L3.65342 29.1252ZM16.7546 5.22788L35.4213 29.2279L38.5787 26.7721L19.912 2.77212L16.7546 5.22788Z" fill="black"/>
</svg>
