<svg width="90" height="90" viewBox="0 0 90 90" fill="none" xmlns="http://www.w3.org/2000/svg">
<g clip-path="url(#clip0_402_104)">
<path d="M48.975 12.3113C47.9203 11.2579 46.4906 10.6663 45 10.6663C43.5094 10.6663 42.0797 11.2579 41.025 12.3113L19.8038 33.5213C18.7485 34.5765 18.1557 36.0077 18.1557 37.5001C18.1557 38.9924 18.7485 40.4236 19.8038 41.4788C20.859 42.534 22.2902 43.1269 23.7825 43.1269C25.2748 43.1269 26.706 42.534 27.7613 41.4788L39.375 29.8688V73.1251C39.375 74.6169 39.9676 76.0476 41.0225 77.1025C42.0774 78.1574 43.5082 78.7501 45 78.7501C46.4918 78.7501 47.9226 78.1574 48.9775 77.1025C50.0324 76.0476 50.625 74.6169 50.625 73.1251V29.8688L62.235 41.4788C62.7575 42.0013 63.3778 42.4158 64.0605 42.6985C64.7431 42.9813 65.4748 43.1269 66.2137 43.1269C66.9527 43.1269 67.6844 42.9813 68.367 42.6985C69.0497 42.4158 69.67 42.0013 70.1925 41.4788C70.715 40.9563 71.1295 40.336 71.4122 39.6533C71.695 38.9707 71.8406 38.239 71.8406 37.5001C71.8406 36.7611 71.695 36.0295 71.4122 35.3468C71.1295 34.6641 70.715 34.0438 70.1925 33.5213L48.975 12.3113Z" fill="white"/>
</g>
<defs>
<clipPath id="clip0_402_104">
<rect width="90" height="90" fill="white"/>
</clipPath>
</defs>
</svg>
