<svg width="71" height="70" viewBox="0 0 71 70" fill="none" xmlns="http://www.w3.org/2000/svg">
<path d="M70.5 0V26.25H0.5V0H70.5ZM66.6111 21.875V4.375H4.38889V21.875H66.6111ZM16.0556 8.75V17.5H8.27778V8.75H16.0556ZM27.7222 8.75V17.5H19.9444V8.75H27.7222ZM39.3889 8.75V17.5H31.6111V8.75H39.3889ZM51.0556 8.75V17.5H43.2778V8.75H51.0556ZM62.7222 8.75V17.5H54.9444V8.75H62.7222ZM70.5 30.625V70H0.5V30.625H70.5ZM66.6111 65.625V35H4.38889V65.625H66.6111ZM16.0556 39.375V48.125H8.27778V39.375H16.0556ZM27.7222 39.375V48.125H19.9444V39.375H27.7222ZM39.3889 39.375V48.125H31.6111V39.375H39.3889ZM62.7222 39.375V48.125H43.2778V39.375H62.7222ZM39.3889 52.5V61.25H8.27778V52.5H39.3889ZM51.0556 52.5V61.25H43.2778V52.5H51.0556ZM62.7222 52.5V61.25H54.9444V52.5H62.7222Z" fill="#00E0FF"/>
</svg>
