<svg width="47" height="46" viewBox="0 0 47 46" fill="none" xmlns="http://www.w3.org/2000/svg">
<path d="M23.9819 0C11.2999 0 0.980469 10.3166 0.980469 23C0.980469 35.6834 11.2999 46 23.9819 46C36.6639 46 46.9833 35.6834 46.9833 23C46.9833 10.3166 36.6639 0 23.9819 0ZM23.9819 44.468C12.1448 44.468 2.51533 34.8371 2.51533 23C2.51533 11.1629 12.1448 1.53199 23.9819 1.53199C35.819 1.53199 45.4485 11.1629 45.4485 23C45.4485 34.8371 35.819 44.468 23.9819 44.468Z" fill="white"/>
<path d="M29.0031 10.0901H25.176C20.3018 10.0414 19.6792 13.058 19.6792 16.3228V18.6968H17.5275C17.4303 18.6839 17.3313 18.6935 17.2384 18.7249C17.1455 18.7564 17.061 18.8088 16.9917 18.8782C16.9223 18.9476 16.8698 19.032 16.8384 19.1249C16.8069 19.2179 16.7973 19.3168 16.8103 19.4141V23.7174C16.7973 23.8147 16.8069 23.9136 16.8384 24.0066C16.8698 24.0995 16.9223 24.1839 16.9917 24.2533C17.061 24.3227 17.1455 24.3751 17.2384 24.4066C17.3313 24.438 17.4303 24.4476 17.5275 24.4347H19.6792V35.193C19.6673 35.2905 19.6777 35.3893 19.7098 35.4821C19.7419 35.5749 19.7948 35.6591 19.8644 35.7283C19.934 35.7975 20.0186 35.8498 20.1115 35.8814C20.2045 35.9129 20.3034 35.9228 20.4007 35.9103H24.783C25.2062 35.959 25.549 35.6162 25.4141 35.193L25.417 24.4347H29.0031C29.1004 24.4476 29.1993 24.438 29.2923 24.4066C29.3852 24.3751 29.4697 24.3227 29.539 24.2533C29.6084 24.1839 29.6609 24.0995 29.6923 24.0066C29.7238 23.9136 29.7334 23.8147 29.7204 23.7174V19.4141C29.7334 19.3168 29.7238 19.2179 29.6923 19.1249C29.6609 19.032 29.6084 18.9476 29.539 18.8782C29.4697 18.8088 29.3852 18.7564 29.2923 18.7249C29.1993 18.6935 29.1004 18.6839 29.0031 18.6968H25.4127L25.417 16.5452C25.5562 15.6286 25.5562 15.7777 26.4068 15.8279H28.973C29.1724 15.7835 29.3847 15.8079 29.5339 15.663C29.6831 15.5181 29.7691 15.3201 29.7189 15.1107V10.8074C29.7322 10.7102 29.7228 10.6113 29.6915 10.5183C29.6603 10.4254 29.608 10.3409 29.5387 10.2715C29.4694 10.2021 29.385 10.1496 29.2921 10.1181C29.1992 10.0867 29.1003 10.0771 29.0031 10.0901ZM28.2357 14.3132L26.4369 14.2443C24.2092 14.2443 24.0227 15.4535 24.0227 16.6915L24.017 19.4112C24.0168 19.5119 24.0365 19.6117 24.0749 19.7048C24.1133 19.7979 24.1697 19.8825 24.2408 19.9538C24.312 20.0251 24.3965 20.0816 24.4895 20.1202C24.5826 20.1588 24.6823 20.1786 24.783 20.1786H28.2859V22.95H24.7859C24.5826 22.95 24.3876 23.0307 24.2437 23.1743C24.0998 23.3179 24.0188 23.5127 24.0184 23.716L24.017 34.4758H21.1137V23.7174C21.1137 23.2943 20.8253 22.9514 20.4007 22.9514H18.2448V20.1801H20.4007C20.5014 20.1802 20.6011 20.1605 20.6941 20.1221C20.7872 20.0837 20.8717 20.0274 20.943 19.9563C21.0864 19.8114 21.1122 19.6163 21.1122 19.4126V16.3214C21.1122 13.1054 21.762 11.5734 25.1746 11.5734H28.2343L28.2357 14.3132Z" fill="white"/>
</svg>
