<svg width="71" height="70" viewBox="0 0 71 70" fill="none" xmlns="http://www.w3.org/2000/svg">
<path d="M35.5085 19.5881V36.3806H46.2803C46.9945 36.3806 47.6795 36.6755 48.1845 37.2004C48.6895 37.7252 48.9733 38.4371 48.9733 39.1794C48.9733 39.9217 48.6895 40.6335 48.1845 41.1584C47.6795 41.6833 46.9945 41.9781 46.2803 41.9781H32.8155C32.1013 41.9781 31.4163 41.6833 30.9113 41.1584C30.4063 40.6335 30.1225 39.9217 30.1225 39.1794V19.5881C30.1225 18.8459 30.4063 18.134 30.9113 17.6091C31.4163 17.0843 32.1013 16.7894 32.8155 16.7894C33.5297 16.7894 34.2147 17.0843 34.7197 17.6091C35.2247 18.134 35.5085 18.8459 35.5085 19.5881ZM0.5 13.9907C0.5 18.2531 2.33121 22.0678 5.22345 24.6343C3.87589 28.392 3.18816 32.3705 3.19296 36.3806C3.19296 44.6481 6.06634 52.216 10.8329 58.0681L3.982 65.1881C3.72479 65.4463 3.51963 65.7551 3.3785 66.0966C3.23736 66.4381 3.16308 66.8053 3.15997 67.1769C3.15686 67.5486 3.225 67.9171 3.3604 68.261C3.49581 68.605 3.69577 68.9175 3.94862 69.1803C4.20146 69.443 4.50214 69.6509 4.83309 69.7916C5.16405 69.9323 5.51866 70.0031 5.87623 69.9999C6.23379 69.9967 6.58716 69.9195 6.91572 69.7728C7.24427 69.6261 7.54142 69.4129 7.78984 69.1456L14.6407 62.0256C20.4691 67.1628 27.8662 69.9774 35.5085 69.9656C43.4635 69.9656 50.7452 66.9793 56.3762 62.0256L63.2271 69.1456C63.735 69.6554 64.4152 69.9375 65.1213 69.9311C65.8274 69.9247 66.5028 69.6304 67.0021 69.1115C67.5014 68.5926 67.7846 67.8906 67.7908 67.1568C67.7969 66.423 67.5255 65.716 67.0349 65.1881L60.184 58.0681C65.1273 52.0109 67.8355 44.3232 67.824 36.3806C67.824 32.2497 67.1049 28.2923 65.7935 24.6343C67.203 23.3798 68.3478 21.836 69.156 20.0999C69.9642 18.3638 70.4183 16.4728 70.49 14.5456C70.5616 12.6183 70.2491 10.6966 69.5722 8.90081C68.8953 7.10506 67.8685 5.47412 66.5563 4.11037C65.244 2.74661 63.6748 1.67948 61.9469 0.975949C60.219 0.27242 58.3699 -0.0523158 56.5155 0.0221238C54.6611 0.0965634 52.8416 0.568572 51.1711 1.40852C49.5006 2.24847 48.0152 3.43823 46.8081 4.90312C43.193 3.50486 39.3658 2.79201 35.5085 2.79846C31.5337 2.79846 27.7258 3.54573 24.2061 4.90872C22.4186 2.73228 20.0321 1.17767 17.3682 0.4544C14.7043 -0.26887 11.8911 -0.126026 9.30768 0.863678C6.7243 1.85338 4.49496 3.64237 2.92011 5.98953C1.34526 8.33669 0.500608 11.1292 0.5 13.9907ZM5.88592 13.9907C5.88581 12.4042 6.31819 10.8501 7.13297 9.50852C7.94776 8.16693 9.1116 7.0927 10.4897 6.41027C11.8678 5.72785 13.4037 5.46516 14.9195 5.65264C16.4353 5.84012 17.869 6.47008 19.0545 7.46957C14.3741 10.3548 10.4664 14.4161 7.6902 19.2803C6.52025 17.7858 5.88289 15.9173 5.88592 13.9907ZM65.131 13.9907C65.131 15.9946 64.4551 17.8361 63.3267 19.2803C60.5505 14.4161 56.6428 10.3548 51.9624 7.46957C53.1479 6.47008 54.5816 5.84012 56.0974 5.65264C57.6133 5.46516 59.1492 5.72785 60.5272 6.41027C61.9053 7.0927 63.0692 8.16693 63.8839 9.50852C64.6987 10.8501 65.1311 12.4042 65.131 13.9907ZM35.5085 8.39316C50.3817 8.39316 62.438 20.9231 62.438 36.3806C62.438 51.8381 50.3817 64.3681 35.5085 64.3681C20.6353 64.3681 8.57887 51.8381 8.57887 36.3806C8.57887 20.9231 20.6353 8.39316 35.5085 8.39316Z" fill="#00E0FF"/>
</svg>
