<svg width="78" height="78" viewBox="0 0 78 78" fill="none" xmlns="http://www.w3.org/2000/svg">
<path d="M69 30.25V9.83333C69 8.28624 68.4732 6.80251 67.5355 5.70854C66.5979 4.61458 65.3261 4 64 4H9C7.67392 4 6.40215 4.61458 5.46447 5.70854C4.52678 6.80251 4 8.28624 4 9.83333V68.1667C4 69.7138 4.52678 71.1975 5.46447 72.2915C6.40215 73.3854 7.67392 74 9 74H64C65.3261 74 66.5979 73.3854 67.5355 72.2915C68.4732 71.1975 69 69.7138 69 68.1667V47.75M73.65 27.3333H49C46.3478 27.3333 43.8043 28.5625 41.9289 30.7504C40.0536 32.9383 39 35.9058 39 39C39 42.0942 40.0536 45.0617 41.9289 47.2496C43.8043 49.4375 46.3478 50.6667 49 50.6667H73.65C73.7428 50.6667 73.8319 50.6236 73.8975 50.5471C73.9631 50.4705 74 50.3666 74 50.2583V27.7417C74 27.6334 73.9631 27.5295 73.8975 27.4529C73.8319 27.3764 73.7428 27.3333 73.65 27.3333Z" stroke="#00E0FF" stroke-width="6.66667"/>
</svg>
