<svg width="77" height="78" viewBox="0 0 77 78" fill="none" xmlns="http://www.w3.org/2000/svg">
<path d="M73.5 22.5932V55.4068C73.5002 55.785 73.3889 56.1564 73.1775 56.4823C72.9662 56.8083 72.6627 57.0769 72.2983 57.2603L39.6317 73.7342C39.2854 73.9085 38.896 74 38.5 74C38.104 74 37.7146 73.9085 37.3683 73.7342L4.70167 57.2603C4.33735 57.0769 4.03376 56.8083 3.82245 56.4823C3.61114 56.1564 3.4998 55.785 3.5 55.4068V22.5932C3.50049 22.2156 3.61216 21.845 3.82344 21.5197C4.03471 21.1944 4.33792 20.9263 4.70167 20.7432L37.3683 4.26582C37.7146 4.09148 38.104 4 38.5 4C38.896 4 39.2854 4.09148 39.6317 4.26582L72.2983 20.7432C72.6621 20.9263 72.9653 21.1944 73.1766 21.5197C73.3878 21.845 73.4995 22.2156 73.5 22.5932Z" stroke="#00E0FF" stroke-width="6.25" stroke-linecap="round" stroke-linejoin="round"/>
</svg>
