<svg width="78" height="78" viewBox="0 0 78 78" fill="none" xmlns="http://www.w3.org/2000/svg">
<path d="M51.3744 51.3744C49.7494 52.9995 47.8202 54.2886 45.697 55.168C43.5738 56.0475 41.2982 56.5001 39 56.5001C36.7018 56.5001 34.4262 56.0475 32.303 55.168C30.1798 54.2886 28.2506 52.9995 26.6256 51.3744M74 39C74 43.5963 73.0947 48.1475 71.3358 52.3939C69.5769 56.6403 66.9988 60.4987 63.7487 63.7487C60.4987 66.9988 56.6403 69.5769 52.3939 71.3358C48.1475 73.0947 43.5963 74 39 74C34.4037 74 29.8525 73.0947 25.6061 71.3358C21.3597 69.5769 17.5013 66.9988 14.2513 63.7487C11.0012 60.4987 8.42313 56.6403 6.66422 52.3939C4.9053 48.1475 4 43.5963 4 39C4 29.7174 7.68749 20.815 14.2513 14.2513C20.815 7.68749 29.7174 4 39 4C48.2826 4 57.185 7.68749 63.7487 14.2513C70.3125 20.815 74 29.7174 74 39ZM30.25 30.25C30.25 31.86 29.5967 33.1667 28.7917 33.1667C27.9867 33.1667 27.3333 31.86 27.3333 30.25C27.3333 28.64 27.9867 27.3333 28.7917 27.3333C29.5967 27.3333 30.25 28.64 30.25 30.25ZM28.7917 30.25H28.8228V30.3083H28.7917V30.25ZM50.6667 30.25C50.6667 31.86 50.0133 33.1667 49.2083 33.1667C48.4033 33.1667 47.75 31.86 47.75 30.25C47.75 28.64 48.4033 27.3333 49.2083 27.3333C50.0133 27.3333 50.6667 28.64 50.6667 30.25ZM49.2083 30.25H49.2394V30.3083H49.2083V30.25Z" stroke="#00E0FF" stroke-width="6.25" stroke-linecap="round" stroke-linejoin="round"/>
</svg>
