<svg width="45" height="44" viewBox="0 0 45 44" fill="none" xmlns="http://www.w3.org/2000/svg">
<path d="M22.5 0.5C18.7653 0.504012 15.0959 1.47992 11.8526 3.33177C8.60926 5.18362 5.90374 7.84765 4.002 11.0619C2.10026 14.2762 1.06777 17.9301 1.00606 21.6644C0.944339 25.3986 1.85552 29.0846 3.65 32.36L1 43.5L12.14 40.85C15.0132 42.4262 18.2088 43.3247 21.4824 43.4768C24.7561 43.629 28.0212 43.0307 31.0282 41.7278C34.0353 40.4249 36.7047 38.4518 38.8325 35.9594C40.9603 33.4669 42.4901 30.521 43.3051 27.3468C44.1201 24.1725 44.1987 20.854 43.5348 17.6448C42.871 14.4355 41.4823 11.4205 39.4748 8.83015C37.4674 6.23976 34.8944 4.14256 31.9523 2.69881C29.0103 1.25506 25.7772 0.502963 22.5 0.5ZM11.75 10.27H17.61C17.8752 10.27 18.1296 10.3754 18.3171 10.5629C18.5046 10.7504 18.61 11.0048 18.61 11.27C18.5772 12.6036 18.8013 13.9311 19.27 15.18C19.4719 15.5981 19.5162 16.0749 19.395 16.5231C19.2738 16.9712 18.9951 17.3607 18.61 17.62L16.56 19.62C17.469 21.395 18.6575 23.0124 20.08 24.41C21.4663 25.8557 23.0771 27.068 24.85 28L26.85 25.95C27.85 24.95 28.31 24.95 29.29 25.29C30.5389 25.7587 31.8664 25.9828 33.2 25.95C33.4613 25.9622 33.7086 26.0714 33.8936 26.2564C34.0786 26.4414 34.1878 26.6887 34.2 26.95V32.81C34.1878 33.0713 34.0786 33.3186 33.8936 33.5036C33.7086 33.6886 33.4613 33.7978 33.2 33.81C27.3176 33.5537 21.7417 31.1151 17.56 26.97C13.4084 22.7928 10.9686 17.2142 10.72 11.33C10.7224 11.0547 10.8307 10.791 11.0226 10.5936C11.2144 10.3962 11.4749 10.2803 11.75 10.27Z" stroke="white" stroke-linecap="round" stroke-linejoin="round"/>
</svg>
